<svg xmlns="http://www.w3.org/2000/svg" xmlns:xlink="http://www.w3.org/1999/xlink" width="500" zoomAndPan="magnify" viewBox="0 0 375 374.999991" height="500" preserveAspectRatio="xMidYMid meet" version="1.2"><defs><clipPath id="ed0491cf78"><path d="M 46 216 L 340 216 L 340 222.585938 L 46 222.585938 Z M 46 216 "/></clipPath></defs><g id="d73ad20286"><path style=" stroke:none;fill-rule:nonzero;fill:#ffffff;fill-opacity:1;" d="M 105.683594 168.984375 C 103.121094 166.949219 100.558594 164.917969 98.4375 162.886719 C 93.84375 158.464844 91.984375 152.015625 92.957031 145.652344 C 93.578125 141.675781 93.578125 137.699219 92.957031 133.632812 C 91.898438 125.765625 88.894531 117.988281 83.589844 111.890625 C 78.023438 105.527344 69.804688 102.789062 61.140625 105.175781 C 59.199219 105.703125 57.34375 106.589844 55.839844 107.648438 C 52.214844 110.125 47.796875 111.097656 43.464844 110.300781 C 30.210938 108.003906 29.769531 117.546875 33.125 117.636719 C 37.191406 117.722656 47.265625 116.664062 47.796875 124.972656 C 47.621094 128.949219 48.238281 133.367188 49.476562 138.050781 C 50.183594 140.703125 51.15625 143.265625 52.480469 145.652344 C 55.222656 150.867188 58.136719 153.78125 63.085938 156.964844 C 67.945312 160.058594 73.867188 162 80.9375 160.765625 C 81.46875 160.675781 83.855469 160.320312 84.386719 160.941406 C 84.5625 161.117188 94.992188 173.578125 94.992188 173.578125 C 96.933594 175.699219 98.789062 181.53125 100.292969 186.921875 C 101.175781 182.238281 102.855469 177.203125 104.625 172.339844 C 104.976562 171.191406 105.332031 170.132812 105.683594 168.984375 Z M 58.757812 138.847656 C 53.808594 128.859375 55.398438 118.078125 62.203125 114.71875 C 69.007812 111.359375 78.550781 116.664062 83.5 126.648438 C 88.449219 136.636719 86.859375 147.417969 80.054688 150.777344 C 73.25 154.046875 63.703125 148.746094 58.757812 138.847656 Z M 58.757812 138.847656 "/><path style=" stroke:none;fill-rule:nonzero;fill:#ffffff;fill-opacity:1;" d="M 98.4375 131.597656 C 100.382812 135.222656 102.679688 138.492188 105.507812 141.320312 C 110.015625 145.917969 112.222656 152.191406 111.074219 158.464844 C 109.484375 167.570312 104.183594 178.261719 102.589844 187.367188 C 102.0625 190.28125 102.324219 193.285156 103.386719 196.113281 L 112.753906 219.269531 L 134.496094 219.269531 L 126.71875 187.71875 C 125.394531 183.035156 119.472656 169.777344 120.089844 165.007812 C 120.089844 165.007812 121.238281 148.832031 121.328125 148.566406 C 121.414062 147.773438 123.535156 146.710938 124.066406 146.445312 C 130.429688 143.265625 134.140625 138.226562 136.351562 132.925781 C 138.5625 127.445312 139.179688 123.378906 138.382812 117.546875 C 138.03125 114.894531 137.324219 112.246094 136.441406 109.683594 C 130.339844 93.421875 118.851562 85.644531 107.71875 89.796875 C 99.234375 92.976562 94.195312 99.960938 93.398438 108.445312 C 91.542969 109.945312 90.394531 109.859375 90.835938 115.601562 C 91.015625 117.636719 93.136719 119.226562 94.195312 119.84375 C 94.902344 124 96.40625 127.886719 98.4375 131.597656 Z M 114.082031 187.011719 C 112.667969 187.453125 111.074219 186.660156 110.546875 185.246094 C 110.101562 183.832031 110.898438 182.238281 112.3125 181.710938 C 113.726562 181.265625 115.316406 182.0625 115.847656 183.476562 C 116.378906 184.890625 115.496094 186.480469 114.082031 187.011719 Z M 112.222656 98.191406 C 119.738281 96.957031 127.335938 104.820312 129.191406 115.78125 C 131.046875 126.738281 126.363281 136.636719 118.851562 137.875 C 111.339844 139.113281 103.738281 131.246094 101.882812 120.285156 C 100.027344 109.328125 104.710938 99.519531 112.222656 98.191406 Z M 112.222656 98.191406 "/><path style=" stroke:none;fill-rule:nonzero;fill:#ffffff;fill-opacity:1;" d="M 285.355469 132.21875 C 282.703125 144.855469 284.824219 158.90625 276.253906 169.601562 C 269.976562 177.46875 259.636719 183.210938 250.710938 187.101562 C 251.507812 188.515625 252.304688 189.75 252.921875 190.722656 C 254.777344 193.730469 255.574219 197.175781 255.21875 200.710938 C 263.4375 185.597656 273.777344 183.566406 278.460938 183.476562 C 279.789062 183.476562 281.027344 182.59375 281.378906 181.265625 C 284.207031 170.042969 296.757812 161.914062 308.15625 160.144531 C 326.273438 157.316406 345.1875 136.992188 332.460938 118.785156 C 321.945312 103.847656 299.144531 107.914062 289.6875 121.523438 C 287.652344 121.699219 283.855469 122.320312 282.261719 124.792969 C 280.054688 128.242188 285.355469 132.21875 285.355469 132.21875 Z M 303.472656 123.027344 C 311.605469 117.371094 321.855469 118.164062 326.363281 124.707031 C 330.871094 131.246094 328.042969 141.144531 319.910156 146.710938 C 311.78125 152.367188 301.527344 151.574219 297.023438 145.03125 C 292.425781 138.492188 295.34375 128.683594 303.472656 123.027344 Z M 303.472656 123.027344 "/><path style=" stroke:none;fill-rule:nonzero;fill:#ffffff;fill-opacity:1;" d="M 226.320312 219.359375 L 248.503906 219.359375 L 254.777344 208.839844 C 256.632812 205.835938 257.074219 202.125 256.101562 198.765625 C 253.363281 189.574219 248.769531 170.042969 253.1875 155.550781 C 257.695312 140.878906 273.160156 134.871094 281.996094 123.378906 C 292.25 110.035156 286.417969 87.675781 270.949219 81.929688 C 269.890625 71.324219 255.660156 59.835938 252.039062 61.515625 C 248.945312 62.929688 261.492188 71.324219 261.140625 80.605469 C 240.8125 82.109375 235.335938 107.914062 243.023438 123.820312 C 247.972656 134.25 248.324219 149.1875 240.636719 157.847656 C 239.753906 158.90625 239.664062 160.410156 240.460938 161.558594 C 243.113281 165.535156 247.441406 175.789062 238.515625 191.960938 C 235.777344 196.910156 231.355469 206.984375 226.320312 219.359375 Z M 261.9375 88.734375 C 269.890625 88.824219 276.339844 96.867188 276.253906 106.675781 C 276.164062 116.574219 269.625 124.527344 261.671875 124.441406 C 253.71875 124.351562 247.265625 116.308594 247.355469 106.5 C 247.441406 96.691406 253.980469 88.734375 261.9375 88.734375 Z M 241.433594 203.980469 C 242.667969 202.65625 244.789062 202.566406 246.117188 203.804688 C 247.441406 205.042969 247.53125 207.164062 246.292969 208.488281 C 245.054688 209.8125 242.933594 209.902344 241.609375 208.664062 C 240.285156 207.425781 240.195312 205.394531 241.433594 203.980469 Z M 241.433594 203.980469 "/><path style=" stroke:none;fill-rule:nonzero;fill:#ffffff;fill-opacity:1;" d="M 145.453125 219.359375 L 176.210938 219.359375 C 177.003906 219.179688 177.535156 218.386719 177.445312 217.503906 C 177.359375 216.617188 176.5625 216 175.679688 216.089844 L 153.410156 218.472656 C 152.613281 218.5625 151.90625 218.03125 151.816406 217.238281 L 151.816406 217.148438 C 151.730469 216.351562 152.257812 215.644531 152.964844 215.558594 L 174.972656 211.492188 C 175.855469 211.316406 176.476562 210.433594 176.296875 209.460938 C 176.121094 208.664062 175.324219 208.132812 174.441406 208.222656 L 152.257812 210.609375 C 151.464844 210.699219 150.757812 210.167969 150.667969 209.371094 L 150.667969 209.285156 C 150.582031 208.488281 151.109375 207.78125 151.816406 207.691406 L 173.824219 203.628906 C 174.707031 203.449219 175.324219 202.566406 175.148438 201.59375 C 174.972656 200.800781 174.175781 200.269531 173.292969 200.355469 L 151.199219 202.742188 C 150.402344 202.832031 149.695312 202.300781 149.609375 201.507812 L 149.609375 201.417969 C 149.519531 200.621094 150.050781 199.914062 150.757812 199.828125 L 172.675781 195.761719 C 173.558594 195.585938 174.089844 194.789062 174 193.90625 C 173.910156 193.023438 173.117188 192.402344 172.234375 192.492188 L 150.136719 194.878906 C 149.34375 194.964844 148.636719 194.4375 148.546875 193.640625 L 148.546875 193.550781 C 148.460938 192.757812 148.988281 192.050781 149.695312 191.960938 L 171.527344 187.894531 C 172.410156 187.71875 173.027344 186.835938 172.851562 185.863281 C 172.675781 185.066406 171.878906 184.539062 170.996094 184.625 L 149.078125 187.011719 C 148.28125 187.101562 147.574219 186.570312 147.488281 185.773438 L 147.488281 185.6875 C 147.398438 184.890625 147.929688 184.183594 148.636719 184.097656 L 170.375 180.03125 C 171.261719 179.855469 171.878906 178.96875 171.703125 177.996094 C 171.527344 177.203125 170.730469 176.671875 169.847656 176.761719 L 148.015625 179.148438 C 147.222656 179.234375 146.515625 178.703125 146.425781 177.910156 L 146.425781 177.820312 C 146.339844 177.027344 146.867188 176.320312 147.574219 176.230469 L 169.226562 172.164062 C 170.113281 171.988281 170.640625 171.191406 170.554688 170.308594 C 170.464844 169.425781 169.667969 168.804688 168.785156 168.894531 L 146.957031 171.28125 C 146.160156 171.371094 145.453125 170.839844 145.367188 170.042969 L 145.367188 169.957031 C 145.277344 169.160156 145.808594 168.453125 146.515625 168.363281 L 168.078125 164.386719 C 168.960938 164.210938 169.582031 163.328125 169.40625 162.355469 C 169.226562 161.558594 168.433594 161.027344 167.546875 161.117188 L 145.808594 163.414062 C 145.011719 163.503906 144.304688 162.972656 144.21875 162.179688 L 144.21875 162.089844 C 144.128906 161.292969 144.660156 160.585938 145.367188 160.5 L 166.929688 156.609375 C 167.8125 156.433594 168.433594 155.550781 168.253906 154.578125 C 168.078125 153.78125 167.285156 153.25 166.398438 153.339844 L 144.746094 155.636719 C 143.953125 155.726562 143.246094 155.195312 143.15625 154.402344 C 143.066406 153.605469 143.597656 152.898438 144.304688 152.808594 L 165.78125 148.746094 C 166.664062 148.566406 167.195312 147.773438 167.105469 146.890625 C 167.019531 146.003906 166.222656 145.386719 165.339844 145.476562 L 142.273438 147.859375 C 138.03125 148.039062 134.9375 151.835938 135.554688 155.992188 Z M 145.453125 219.359375 "/><path style=" stroke:none;fill-rule:nonzero;fill:#ffffff;fill-opacity:1;" d="M 192.914062 219.359375 L 204.492188 219.359375 C 203.695312 210.34375 205.109375 203.539062 218.632812 197.527344 L 229.5 191.960938 C 230.207031 191.871094 230.648438 191.253906 230.648438 190.546875 C 230.5625 189.839844 229.941406 189.308594 229.234375 189.398438 L 195.476562 193.285156 C 195.035156 193.375 194.679688 193.023438 194.679688 192.667969 C 194.59375 192.226562 194.945312 191.871094 195.300781 191.871094 L 229.941406 186.835938 C 230.207031 186.835938 230.386719 186.570312 230.386719 186.214844 C 230.386719 185.953125 230.121094 185.6875 229.765625 185.773438 L 195.035156 189.75 C 194.59375 189.839844 194.238281 189.488281 194.238281 189.042969 C 194.148438 188.601562 194.503906 188.25 194.855469 188.25 L 229.5 183.210938 C 229.765625 183.210938 229.941406 182.945312 229.941406 182.59375 C 229.941406 182.328125 229.679688 182.0625 229.324219 182.152344 L 194.59375 186.128906 C 194.148438 186.214844 193.796875 185.863281 193.796875 185.421875 C 193.707031 184.980469 194.0625 184.625 194.414062 184.625 L 228.972656 179.589844 C 229.234375 179.589844 229.414062 179.324219 229.414062 178.96875 C 229.414062 178.617188 229.148438 178.4375 228.792969 178.527344 L 194.0625 182.503906 C 193.621094 182.59375 193.265625 182.238281 193.265625 181.796875 C 193.179688 181.355469 193.53125 181.003906 193.886719 181.003906 L 228.441406 175.964844 C 228.707031 175.964844 228.882812 175.699219 228.882812 175.347656 C 228.882812 175.082031 228.617188 174.816406 228.265625 174.90625 L 193.621094 178.882812 C 193.179688 178.96875 192.824219 178.617188 192.824219 178.175781 C 192.738281 177.730469 193.089844 177.378906 193.445312 177.378906 L 228 172.339844 C 228.265625 172.339844 228.441406 172.078125 228.441406 171.722656 C 228.441406 171.457031 228.175781 171.191406 227.820312 171.28125 L 193.179688 175.257812 C 192.738281 175.347656 192.382812 174.992188 192.382812 174.640625 C 192.292969 174.195312 192.648438 173.84375 193 173.84375 L 227.46875 168.894531 C 227.734375 168.894531 227.910156 168.628906 227.910156 168.277344 C 227.910156 168.011719 227.644531 167.746094 227.292969 167.835938 L 192.738281 171.8125 C 192.292969 171.898438 191.941406 171.546875 191.941406 171.191406 C 191.851562 170.75 192.207031 170.398438 192.558594 170.398438 L 227.027344 165.449219 C 227.292969 165.449219 227.46875 165.183594 227.46875 164.828125 C 227.46875 164.5625 227.203125 164.300781 226.851562 164.386719 L 192.292969 168.363281 C 191.851562 168.453125 191.5 168.097656 191.5 167.746094 C 191.410156 167.304688 191.765625 166.949219 192.117188 166.949219 L 226.496094 162 C 226.761719 162 226.9375 161.734375 226.9375 161.382812 C 226.9375 161.117188 226.671875 160.851562 226.320312 160.941406 L 191.765625 164.917969 C 191.324219 165.007812 190.96875 164.652344 190.96875 164.300781 C 190.878906 163.855469 191.234375 163.503906 191.585938 163.503906 L 225.964844 158.554688 C 226.230469 158.554688 226.40625 158.289062 226.40625 157.9375 C 226.40625 157.671875 226.144531 157.40625 225.789062 157.492188 L 191.324219 161.472656 C 190.878906 161.558594 190.527344 161.207031 190.527344 160.851562 C 190.4375 160.410156 190.792969 160.058594 191.144531 160.058594 L 225.523438 155.109375 C 225.789062 155.109375 225.964844 154.84375 225.964844 154.488281 C 225.964844 154.222656 225.703125 153.957031 225.347656 154.046875 L 190.878906 158.023438 C 190.4375 158.113281 190.085938 157.757812 190.085938 157.40625 C 189.996094 156.964844 190.351562 156.609375 190.703125 156.609375 L 224.992188 151.660156 C 225.257812 151.660156 225.4375 151.394531 225.4375 151.042969 C 225.4375 150.6875 225.171875 150.511719 224.816406 150.601562 L 190.4375 154.578125 C 189.996094 154.664062 189.644531 154.3125 189.644531 153.957031 C 189.554688 153.515625 189.910156 153.164062 190.261719 153.164062 L 224.550781 148.214844 C 224.816406 148.214844 224.992188 147.949219 224.992188 147.59375 C 224.992188 147.332031 224.730469 147.066406 224.375 147.152344 L 189.996094 151.128906 C 189.554688 151.21875 189.203125 150.867188 189.203125 150.511719 C 189.113281 150.070312 189.464844 149.714844 189.820312 149.714844 L 224.023438 144.765625 C 224.285156 144.765625 224.464844 144.503906 224.464844 144.148438 C 224.464844 143.882812 224.199219 143.617188 223.84375 143.707031 L 189.464844 147.683594 C 189.023438 147.773438 188.671875 147.417969 188.671875 147.066406 C 188.582031 146.625 188.9375 146.269531 189.289062 146.269531 L 223.492188 141.320312 C 223.757812 141.320312 223.933594 141.054688 223.933594 140.703125 C 223.933594 140.347656 223.667969 140.171875 223.316406 140.261719 L 189.023438 144.238281 C 188.582031 144.324219 188.230469 143.972656 188.230469 143.53125 C 188.140625 143.089844 188.496094 142.734375 188.847656 142.734375 L 223.050781 137.785156 C 223.316406 137.785156 223.492188 137.519531 223.492188 137.167969 C 223.492188 136.902344 223.226562 136.636719 222.875 136.726562 L 188.582031 140.613281 C 188.140625 140.703125 187.789062 140.347656 187.789062 139.996094 C 187.699219 139.554688 188.050781 139.199219 188.40625 139.199219 L 222.519531 134.25 C 222.785156 134.25 222.960938 133.984375 222.960938 133.632812 C 222.960938 133.367188 222.695312 133.101562 222.34375 133.191406 L 188.140625 137.078125 C 187.699219 137.167969 187.34375 136.8125 187.34375 136.460938 C 187.257812 136.019531 187.609375 135.664062 187.964844 135.664062 L 222.078125 130.714844 C 222.34375 130.714844 222.519531 130.449219 222.519531 130.097656 C 222.519531 129.832031 222.253906 129.566406 221.902344 129.65625 L 187.699219 133.542969 C 187.257812 133.632812 186.902344 133.277344 186.902344 132.925781 C 186.816406 132.484375 187.167969 132.128906 187.523438 132.128906 L 221.546875 127.179688 C 221.8125 127.179688 221.988281 126.914062 221.988281 126.5625 C 221.988281 126.296875 221.722656 126.03125 221.371094 126.121094 L 187.167969 130.007812 C 186.726562 130.097656 186.375 129.742188 186.375 129.390625 C 186.285156 128.949219 186.636719 128.59375 186.992188 128.59375 L 221.015625 123.644531 C 221.28125 123.644531 221.460938 123.378906 221.460938 123.027344 C 221.460938 122.761719 221.195312 122.496094 220.839844 122.585938 L 186.726562 126.472656 C 186.285156 126.5625 185.929688 126.207031 185.929688 125.855469 C 185.84375 125.414062 186.195312 125.058594 186.550781 125.058594 L 220.574219 120.109375 C 220.839844 120.109375 221.015625 119.84375 221.015625 119.492188 C 221.015625 119.226562 220.753906 118.960938 220.398438 119.050781 L 186.285156 122.9375 C 185.84375 123.027344 185.488281 122.671875 185.488281 122.320312 C 185.402344 121.878906 185.753906 121.523438 186.109375 121.523438 L 220.046875 116.574219 C 220.308594 116.574219 220.488281 116.308594 220.488281 115.957031 C 220.488281 115.691406 220.222656 115.425781 219.867188 115.515625 L 185.84375 119.402344 C 185.402344 119.492188 185.046875 119.136719 185.046875 118.785156 C 184.960938 118.34375 185.3125 117.988281 185.667969 117.988281 L 219.601562 113.039062 C 219.867188 113.039062 220.046875 112.773438 220.046875 112.421875 C 220.046875 112.15625 219.78125 111.890625 219.425781 111.980469 L 185.402344 115.867188 C 184.960938 115.957031 184.605469 115.601562 184.605469 115.25 C 184.515625 114.808594 184.871094 114.453125 185.222656 114.453125 L 219.074219 109.503906 C 219.339844 109.503906 219.515625 109.238281 219.515625 108.886719 C 219.515625 108.621094 219.25 108.355469 218.894531 108.445312 L 184.871094 112.332031 C 184.429688 112.421875 184.074219 112.066406 184.074219 111.714844 C 183.988281 111.273438 184.339844 110.917969 184.695312 110.917969 L 218.542969 106.058594 C 218.808594 106.058594 218.984375 105.792969 218.984375 105.4375 C 218.984375 105.175781 218.71875 104.910156 218.367188 104.996094 L 184.429688 108.886719 C 183.988281 108.972656 183.632812 108.621094 183.632812 108.179688 C 183.546875 107.738281 183.898438 107.382812 184.253906 107.382812 L 218.101562 102.523438 C 218.367188 102.523438 218.542969 102.257812 218.542969 101.902344 C 218.542969 101.640625 218.277344 101.375 217.925781 101.460938 L 183.988281 105.351562 C 183.546875 105.4375 183.191406 105.085938 183.191406 104.644531 C 183.101562 104.203125 183.457031 103.847656 183.808594 103.847656 L 217.570312 98.988281 C 217.835938 98.988281 218.011719 98.722656 218.011719 98.371094 C 218.011719 98.105469 217.746094 97.839844 217.394531 97.925781 L 183.546875 101.816406 C 183.101562 101.902344 182.75 101.550781 182.75 101.109375 C 182.660156 100.667969 183.015625 100.3125 183.367188 100.3125 L 217.128906 95.453125 C 217.394531 95.453125 217.570312 95.1875 217.570312 94.835938 C 217.570312 94.570312 217.304688 94.304688 216.953125 94.390625 L 183.101562 98.28125 C 182.660156 98.371094 182.308594 98.015625 182.308594 97.574219 C 182.21875 97.132812 182.574219 96.777344 182.925781 96.777344 L 216.597656 91.917969 C 216.863281 91.917969 217.039062 91.652344 217.039062 91.300781 C 217.039062 91.035156 216.773438 90.769531 216.421875 90.855469 L 182.574219 94.746094 C 182.132812 94.835938 181.777344 94.480469 181.777344 94.128906 C 181.6875 93.683594 182.042969 93.332031 182.394531 93.332031 L 216.066406 88.472656 C 216.332031 88.472656 216.511719 88.207031 216.511719 87.851562 C 216.511719 87.585938 216.246094 87.320312 215.890625 87.410156 L 182.132812 91.300781 C 181.6875 91.386719 181.335938 91.035156 181.335938 90.679688 C 181.246094 90.238281 181.601562 89.886719 181.953125 89.886719 L 215.625 85.023438 C 215.890625 85.023438 216.066406 84.757812 216.066406 84.40625 C 216.066406 84.140625 215.804688 83.875 215.449219 83.964844 L 181.6875 87.851562 C 181.246094 87.941406 180.894531 87.585938 180.894531 87.234375 C 180.804688 86.792969 181.160156 86.4375 181.511719 86.4375 L 215.097656 81.578125 C 215.359375 81.578125 215.539062 81.3125 215.539062 80.957031 C 215.539062 80.695312 215.273438 80.429688 214.917969 80.515625 L 181.246094 84.40625 C 180.804688 84.492188 180.453125 84.140625 180.453125 83.785156 C 180.363281 83.34375 180.71875 82.992188 181.070312 82.992188 L 214.652344 78.128906 C 214.917969 78.128906 215.097656 77.867188 215.097656 77.511719 C 215.097656 77.246094 214.832031 76.980469 214.476562 77.070312 L 180.804688 80.957031 C 180.363281 81.046875 180.011719 80.695312 180.011719 80.339844 C 179.921875 79.898438 180.273438 79.542969 180.628906 79.542969 L 214.125 74.683594 C 214.390625 74.683594 214.566406 74.417969 214.566406 74.066406 C 214.566406 73.710938 214.300781 73.535156 213.945312 73.625 L 180.273438 77.511719 C 179.832031 77.601562 179.480469 77.246094 179.480469 76.894531 C 179.390625 76.453125 179.746094 76.097656 180.097656 76.097656 L 213.59375 71.238281 C 213.859375 71.238281 214.035156 70.972656 214.035156 70.617188 C 214.035156 70.355469 213.769531 70.089844 213.417969 70.175781 L 179.832031 74.066406 C 179.390625 74.152344 179.039062 73.800781 179.039062 73.359375 C 178.949219 72.917969 179.304688 72.5625 179.65625 72.5625 L 213.152344 67.703125 C 213.417969 67.703125 213.59375 67.4375 213.59375 67.082031 C 213.59375 66.820312 213.328125 66.554688 212.976562 66.640625 L 178.683594 70.617188 L 178.597656 69.824219 L 212.179688 65.140625 C 212.796875 65.050781 213.238281 64.433594 213.152344 63.8125 C 213.0625 63.195312 212.53125 62.664062 211.824219 62.753906 L 177.976562 64.34375 C 173.46875 64.875 170.375 69.027344 170.90625 73.445312 Z M 192.914062 219.359375 "/><g clip-rule="nonzero" clip-path="url(#ed0491cf78)"><path style=" stroke:none;fill-rule:nonzero;fill:#ffffff;fill-opacity:1;" d="M 336.527344 222.453125 L 49.210938 222.453125 C 47.53125 222.453125 46.117188 221.039062 46.117188 219.359375 C 46.117188 217.679688 47.53125 216.265625 49.210938 216.265625 L 336.527344 216.265625 C 338.207031 216.265625 339.621094 217.679688 339.621094 219.359375 C 339.621094 221.039062 338.292969 222.453125 336.527344 222.453125 Z M 336.527344 222.453125 "/></g><g style="fill:#ffffff;fill-opacity:1;"><g transform="translate(111.412684, 307.43773)"><path style="stroke:none" d="M 6.8125 0.25 C 6.257812 0.25 5.617188 0.1875 4.890625 0.0625 C 4.171875 -0.0625 3.453125 -0.234375 2.734375 -0.453125 C 2.023438 -0.679688 1.414062 -0.941406 0.90625 -1.234375 L 1.140625 -2.15625 C 1.710938 -1.8125 2.332031 -1.523438 3 -1.296875 C 3.675781 -1.078125 4.347656 -0.910156 5.015625 -0.796875 C 5.679688 -0.679688 6.304688 -0.625 6.890625 -0.625 C 7.722656 -0.625 8.457031 -0.753906 9.09375 -1.015625 C 9.726562 -1.285156 10.226562 -1.660156 10.59375 -2.140625 C 10.957031 -2.617188 11.140625 -3.15625 11.140625 -3.75 C 11.140625 -4.300781 11.003906 -4.769531 10.734375 -5.15625 C 10.460938 -5.550781 10 -5.894531 9.34375 -6.1875 C 8.6875 -6.476562 7.78125 -6.742188 6.625 -6.984375 C 4.820312 -7.347656 3.515625 -7.832031 2.703125 -8.4375 C 1.890625 -9.050781 1.484375 -9.910156 1.484375 -11.015625 C 1.484375 -11.753906 1.703125 -12.414062 2.140625 -13 C 2.578125 -13.59375 3.179688 -14.0625 3.953125 -14.40625 C 4.734375 -14.75 5.625 -14.921875 6.625 -14.921875 C 7.632812 -14.921875 8.539062 -14.8125 9.34375 -14.59375 C 10.15625 -14.375 10.816406 -14.125 11.328125 -13.84375 L 11.328125 -12.84375 C 10.828125 -13.125 10.171875 -13.390625 9.359375 -13.640625 C 8.554688 -13.890625 7.625 -14.015625 6.5625 -14.015625 C 5.707031 -14.015625 4.976562 -13.875 4.375 -13.59375 C 3.769531 -13.3125 3.304688 -12.945312 2.984375 -12.5 C 2.660156 -12.050781 2.5 -11.5625 2.5 -11.03125 C 2.5 -10.5 2.640625 -10.039062 2.921875 -9.65625 C 3.210938 -9.28125 3.679688 -8.945312 4.328125 -8.65625 C 4.984375 -8.363281 5.863281 -8.101562 6.96875 -7.875 C 8.851562 -7.476562 10.1875 -6.96875 10.96875 -6.34375 C 11.757812 -5.71875 12.15625 -4.875 12.15625 -3.8125 C 12.15625 -3.019531 11.941406 -2.316406 11.515625 -1.703125 C 11.085938 -1.097656 10.472656 -0.617188 9.671875 -0.265625 C 8.878906 0.078125 7.925781 0.25 6.8125 0.25 Z M 6.8125 0.25 "/></g></g><g style="fill:#ffffff;fill-opacity:1;"><g transform="translate(129.058648, 307.43773)"><path style="stroke:none" d="M 1.671875 0 L 1.671875 -14.6875 L 2.671875 -14.6875 L 2.671875 0 Z M 1.671875 0 "/></g></g><g style="fill:#ffffff;fill-opacity:1;"><g transform="translate(137.829802, 307.43773)"><path style="stroke:none" d="M 13.59375 0.25 L 2.796875 -12.484375 L 2.640625 -12.484375 L 2.640625 0 L 1.671875 0 L 1.671875 -14.921875 L 2.03125 -14.921875 L 12.859375 -2.203125 L 12.984375 -2.203125 L 12.984375 -14.6875 L 13.953125 -14.6875 L 13.953125 0.25 Z M 13.59375 0.25 "/></g></g><g style="fill:#ffffff;fill-opacity:1;"><g transform="translate(157.888539, 307.43773)"><path style="stroke:none" d="M 9.15625 0.25 C 7.59375 0.25 6.207031 -0.0546875 5 -0.671875 C 3.800781 -1.296875 2.859375 -2.171875 2.171875 -3.296875 C 1.492188 -4.429688 1.15625 -5.738281 1.15625 -7.21875 C 1.15625 -8.320312 1.347656 -9.34375 1.734375 -10.28125 C 2.128906 -11.21875 2.679688 -12.03125 3.390625 -12.71875 C 4.109375 -13.414062 4.957031 -13.957031 5.9375 -14.34375 C 6.914062 -14.726562 7.988281 -14.921875 9.15625 -14.921875 C 9.914062 -14.921875 10.65625 -14.835938 11.375 -14.671875 C 12.101562 -14.503906 12.765625 -14.257812 13.359375 -13.9375 L 13.234375 -12.84375 C 12.660156 -13.207031 12.03125 -13.488281 11.34375 -13.6875 C 10.664062 -13.894531 9.925781 -14 9.125 -14 C 7.769531 -14 6.5625 -13.703125 5.5 -13.109375 C 4.445312 -12.515625 3.617188 -11.707031 3.015625 -10.6875 C 2.421875 -9.664062 2.125 -8.507812 2.125 -7.21875 C 2.125 -5.90625 2.421875 -4.757812 3.015625 -3.78125 C 3.617188 -2.800781 4.453125 -2.035156 5.515625 -1.484375 C 6.578125 -0.941406 7.789062 -0.671875 9.15625 -0.671875 C 10.132812 -0.671875 11.054688 -0.820312 11.921875 -1.125 C 12.785156 -1.4375 13.523438 -1.851562 14.140625 -2.375 L 14.140625 -1.296875 C 13.472656 -0.804688 12.71875 -0.425781 11.875 -0.15625 C 11.039062 0.113281 10.132812 0.25 9.15625 0.25 Z M 9.15625 0.25 "/></g></g><g style="fill:#ffffff;fill-opacity:1;"><g transform="translate(177.045107, 307.43773)"><path style="stroke:none" d="M 1.671875 0 L 1.671875 -14.6875 L 12.359375 -14.6875 L 12.359375 -13.765625 L 2.640625 -13.765625 L 2.640625 -7.90625 L 10.90625 -7.90625 L 10.90625 -7.078125 L 2.640625 -7.078125 L 2.640625 -0.921875 L 12.609375 -0.921875 L 12.609375 0 Z M 1.671875 0 "/></g></g><g style="fill:#ffffff;fill-opacity:1;"><g transform="translate(195.236564, 307.43773)"><path style="stroke:none" d=""/></g></g><g style="fill:#ffffff;fill-opacity:1;"><g transform="translate(205.329498, 307.43773)"><path style="stroke:none" d="M 1.109375 0 L 1.109375 -0.6875 L 7.390625 -6.59375 C 8.128906 -7.289062 8.679688 -7.894531 9.046875 -8.40625 C 9.421875 -8.925781 9.675781 -9.390625 9.8125 -9.796875 C 9.945312 -10.203125 10.015625 -10.570312 10.015625 -10.90625 C 10.015625 -11.457031 9.851562 -11.96875 9.53125 -12.4375 C 9.21875 -12.914062 8.785156 -13.300781 8.234375 -13.59375 C 7.691406 -13.882812 7.082031 -14.03125 6.40625 -14.03125 C 5.519531 -14.03125 4.785156 -13.941406 4.203125 -13.765625 C 3.628906 -13.585938 3.160156 -13.378906 2.796875 -13.140625 C 2.429688 -12.910156 2.128906 -12.710938 1.890625 -12.546875 L 1.46875 -13.296875 C 1.75 -13.492188 2.09375 -13.71875 2.5 -13.96875 C 2.914062 -14.226562 3.4375 -14.453125 4.0625 -14.640625 C 4.695312 -14.828125 5.484375 -14.921875 6.421875 -14.921875 C 7.328125 -14.921875 8.125 -14.738281 8.8125 -14.375 C 9.5 -14.019531 10.035156 -13.539062 10.421875 -12.9375 C 10.804688 -12.34375 11 -11.675781 11 -10.9375 C 11 -10.488281 10.921875 -10.03125 10.765625 -9.5625 C 10.609375 -9.09375 10.320312 -8.570312 9.90625 -8 C 9.5 -7.425781 8.890625 -6.753906 8.078125 -5.984375 L 2.9375 -1.09375 L 3 -0.90625 L 11.1875 -0.90625 L 11.1875 0 Z M 1.109375 0 "/></g></g><g style="fill:#ffffff;fill-opacity:1;"><g transform="translate(222.681728, 307.43773)"><path style="stroke:none" d="M 6.25 0.25 C 5.144531 0.25 4.191406 -0.0664062 3.390625 -0.703125 C 2.585938 -1.347656 1.96875 -2.242188 1.53125 -3.390625 C 1.09375 -4.546875 0.875 -5.863281 0.875 -7.34375 C 0.875 -8.84375 1.09375 -10.15625 1.53125 -11.28125 C 1.96875 -12.414062 2.585938 -13.304688 3.390625 -13.953125 C 4.191406 -14.597656 5.144531 -14.921875 6.25 -14.921875 C 7.375 -14.921875 8.332031 -14.597656 9.125 -13.953125 C 9.925781 -13.304688 10.539062 -12.414062 10.96875 -11.28125 C 11.40625 -10.15625 11.625 -8.84375 11.625 -7.34375 C 11.625 -5.863281 11.40625 -4.546875 10.96875 -3.390625 C 10.539062 -2.242188 9.925781 -1.347656 9.125 -0.703125 C 8.332031 -0.0664062 7.375 0.25 6.25 0.25 Z M 6.25 -0.671875 C 7.1875 -0.671875 7.984375 -0.953125 8.640625 -1.515625 C 9.296875 -2.085938 9.800781 -2.875 10.15625 -3.875 C 10.507812 -4.875 10.6875 -6.03125 10.6875 -7.34375 C 10.6875 -8.65625 10.507812 -9.8125 10.15625 -10.8125 C 9.800781 -11.8125 9.296875 -12.59375 8.640625 -13.15625 C 7.984375 -13.71875 7.1875 -14 6.25 -14 C 5.332031 -14 4.539062 -13.71875 3.875 -13.15625 C 3.21875 -12.59375 2.710938 -11.8125 2.359375 -10.8125 C 2.015625 -9.8125 1.84375 -8.65625 1.84375 -7.34375 C 1.84375 -6.03125 2.015625 -4.875 2.359375 -3.875 C 2.710938 -2.875 3.21875 -2.085938 3.875 -1.515625 C 4.539062 -0.953125 5.332031 -0.671875 6.25 -0.671875 Z M 6.25 -0.671875 "/></g></g><g style="fill:#ffffff;fill-opacity:1;"><g transform="translate(239.614359, 307.43773)"><path style="stroke:none" d="M 1.109375 0 L 1.109375 -0.6875 L 7.390625 -6.59375 C 8.128906 -7.289062 8.679688 -7.894531 9.046875 -8.40625 C 9.421875 -8.925781 9.675781 -9.390625 9.8125 -9.796875 C 9.945312 -10.203125 10.015625 -10.570312 10.015625 -10.90625 C 10.015625 -11.457031 9.851562 -11.96875 9.53125 -12.4375 C 9.21875 -12.914062 8.785156 -13.300781 8.234375 -13.59375 C 7.691406 -13.882812 7.082031 -14.03125 6.40625 -14.03125 C 5.519531 -14.03125 4.785156 -13.941406 4.203125 -13.765625 C 3.628906 -13.585938 3.160156 -13.378906 2.796875 -13.140625 C 2.429688 -12.910156 2.128906 -12.710938 1.890625 -12.546875 L 1.46875 -13.296875 C 1.75 -13.492188 2.09375 -13.71875 2.5 -13.96875 C 2.914062 -14.226562 3.4375 -14.453125 4.0625 -14.640625 C 4.695312 -14.828125 5.484375 -14.921875 6.421875 -14.921875 C 7.328125 -14.921875 8.125 -14.738281 8.8125 -14.375 C 9.5 -14.019531 10.035156 -13.539062 10.421875 -12.9375 C 10.804688 -12.34375 11 -11.675781 11 -10.9375 C 11 -10.488281 10.921875 -10.03125 10.765625 -9.5625 C 10.609375 -9.09375 10.320312 -8.570312 9.90625 -8 C 9.5 -7.425781 8.890625 -6.753906 8.078125 -5.984375 L 2.9375 -1.09375 L 3 -0.90625 L 11.1875 -0.90625 L 11.1875 0 Z M 1.109375 0 "/></g></g><g style="fill:#ffffff;fill-opacity:1;"><g transform="translate(256.966589, 307.43773)"><path style="stroke:none" d="M 3.9375 0 L 3.9375 -13.703125 L 0.609375 -13.703125 L 0.609375 -14.6875 L 4.9375 -14.6875 L 4.9375 0 Z M 3.9375 0 "/></g></g><g style="fill:#ffffff;fill-opacity:1;"><g transform="translate(52.607, 275.414889)"><path style="stroke:none" d="M 4.578125 0.09375 L 5.34375 -37.953125 L 18.578125 -37.6875 C 21.847656 -37.625 24.773438 -37.1875 27.359375 -36.375 C 29.941406 -35.5625 32.117188 -34.359375 33.890625 -32.765625 C 35.671875 -31.179688 37.015625 -29.207031 37.921875 -26.84375 C 38.828125 -24.488281 39.25 -21.734375 39.1875 -18.578125 C 39.132812 -16.171875 38.84375 -14.023438 38.3125 -12.140625 C 37.78125 -10.253906 37.046875 -8.601562 36.109375 -7.1875 C 35.179688 -5.78125 34.066406 -4.585938 32.765625 -3.609375 C 31.472656 -2.640625 30.035156 -1.851562 28.453125 -1.25 C 26.878906 -0.644531 25.1875 -0.21875 23.375 0.03125 C 21.570312 0.28125 19.6875 0.390625 17.71875 0.359375 Z M 16.8125 -8.28125 L 17.609375 -8.265625 C 19.015625 -8.234375 20.289062 -8.335938 21.4375 -8.578125 C 22.59375 -8.816406 23.585938 -9.3125 24.421875 -10.0625 C 25.253906 -10.8125 25.898438 -11.882812 26.359375 -13.28125 C 26.828125 -14.675781 27.085938 -16.523438 27.140625 -18.828125 C 27.179688 -20.898438 27.019531 -22.632812 26.65625 -24.03125 C 26.289062 -25.425781 25.726562 -26.550781 24.96875 -27.40625 C 24.207031 -28.257812 23.265625 -28.875 22.140625 -29.25 C 21.023438 -29.625 19.742188 -29.820312 18.296875 -29.84375 L 17.25 -29.875 Z M 16.8125 -8.28125 "/></g></g><g style="fill:#ffffff;fill-opacity:1;"><g transform="translate(94.023201, 276.243876)"><path style="stroke:none" d="M 37.265625 0.75 L 22.90625 0.453125 L 21.28125 -7.6875 L 11.84375 -7.875 L 9.984375 0.203125 L 0.265625 0 L 10.71875 -37.84375 L 27.578125 -37.515625 Z M 17.171875 -31.8125 L 13.125 -14.15625 L 20.8125 -14 L 18 -31.796875 Z M 17.171875 -31.8125 "/></g></g><g style="fill:#ffffff;fill-opacity:1;"><g transform="translate(131.564202, 276.995296)"><path style="stroke:none" d="M 5.34375 -37.953125 L 17 -37.71875 L 31.09375 -18.34375 L 31.484375 -37.4375 L 40.671875 -37.25 L 39.90625 0.796875 L 27.96875 0.5625 L 14.109375 -19.953125 L 13.703125 0.28125 L 4.578125 0.09375 Z M 5.34375 -37.953125 "/></g></g><g style="fill:#ffffff;fill-opacity:1;"><g transform="translate(176.075181, 277.886228)"><path style="stroke:none" d="M 5.375 -37.953125 L 17.421875 -37.71875 L 16.65625 0.328125 L 4.609375 0.09375 Z M 5.375 -37.953125 "/></g></g><g style="fill:#ffffff;fill-opacity:1;"><g transform="translate(197.33496, 278.311764)"><path style="stroke:none" d="M 5.375 -37.953125 L 32.0625 -37.421875 L 31.921875 -30.390625 L 17.28125 -30.6875 L 17.109375 -22.625 L 30.03125 -22.359375 L 29.90625 -15.46875 L 16.984375 -15.734375 L 16.8125 -7.421875 L 31.453125 -7.125 L 31.296875 0.625 L 4.609375 0.09375 Z M 5.375 -37.953125 "/></g></g><g style="fill:#ffffff;fill-opacity:1;"><g transform="translate(232.830716, 279.022247)"><path style="stroke:none" d="M 5.34375 -37.953125 L 17.40625 -37.71875 L 16.796875 -7.421875 L 29.703125 -7.15625 L 29.546875 0.59375 L 4.578125 0.09375 Z M 5.34375 -37.953125 "/></g></g><g style="fill:#ffffff;fill-opacity:1;"><g transform="translate(263.778495, 279.641697)"><path style="stroke:none" d="M 11.515625 -29.921875 C 11.523438 -30.535156 11.414062 -31.0625 11.1875 -31.5 C 10.957031 -31.9375 10.578125 -32.296875 10.046875 -32.578125 C 9.515625 -32.867188 8.8125 -33.085938 7.9375 -33.234375 C 7.0625 -33.390625 5.976562 -33.484375 4.6875 -33.515625 L 4.796875 -38.671875 L 7.375 -38.625 C 8.71875 -38.59375 10.046875 -38.398438 11.359375 -38.046875 C 12.679688 -37.703125 13.867188 -37.101562 14.921875 -36.25 C 15.972656 -35.394531 16.816406 -34.226562 17.453125 -32.75 C 18.097656 -31.28125 18.394531 -29.414062 18.34375 -27.15625 C 18.289062 -24.375 17.628906 -22.265625 16.359375 -20.828125 C 15.085938 -19.390625 13.222656 -18.695312 10.765625 -18.75 C 9.546875 -18.769531 8.488281 -18.984375 7.59375 -19.390625 C 6.695312 -19.796875 5.953125 -20.3125 5.359375 -20.9375 C 4.765625 -21.570312 4.328125 -22.273438 4.046875 -23.046875 C 3.773438 -23.828125 3.648438 -24.59375 3.671875 -25.34375 C 3.679688 -26.082031 3.816406 -26.789062 4.078125 -27.46875 C 4.347656 -28.144531 4.710938 -28.734375 5.171875 -29.234375 C 5.628906 -29.734375 6.160156 -30.128906 6.765625 -30.421875 C 7.367188 -30.722656 8.023438 -30.867188 8.734375 -30.859375 C 9.640625 -30.835938 10.566406 -30.523438 11.515625 -29.921875 Z M 11.515625 -29.921875 "/></g></g><g style="fill:#ffffff;fill-opacity:1;"><g transform="translate(283.908008, 280.04461)"><path style="stroke:none" d="M 32.296875 -27.546875 C 31.566406 -27.890625 30.71875 -28.234375 29.75 -28.578125 C 28.78125 -28.929688 27.765625 -29.253906 26.703125 -29.546875 C 25.640625 -29.835938 24.5625 -30.078125 23.46875 -30.265625 C 22.375 -30.460938 21.34375 -30.570312 20.375 -30.59375 C 18.695312 -30.625 17.375 -30.429688 16.40625 -30.015625 C 15.445312 -29.609375 14.957031 -28.894531 14.9375 -27.875 C 14.925781 -27.382812 15.082031 -26.953125 15.40625 -26.578125 C 15.738281 -26.203125 16.203125 -25.847656 16.796875 -25.515625 C 17.398438 -25.191406 18.125 -24.875 18.96875 -24.5625 C 19.8125 -24.257812 20.753906 -23.9375 21.796875 -23.59375 L 23.75 -22.921875 C 25.394531 -22.390625 26.863281 -21.753906 28.15625 -21.015625 C 29.445312 -20.285156 30.535156 -19.429688 31.421875 -18.453125 C 32.316406 -17.472656 32.992188 -16.359375 33.453125 -15.109375 C 33.910156 -13.867188 34.125 -12.457031 34.09375 -10.875 C 34.050781 -9.03125 33.722656 -7.351562 33.109375 -5.84375 C 32.492188 -4.332031 31.554688 -3.050781 30.296875 -2 C 29.035156 -0.957031 27.4375 -0.160156 25.5 0.390625 C 23.5625 0.953125 21.238281 1.207031 18.53125 1.15625 C 16.125 1.101562 13.738281 0.851562 11.375 0.40625 C 9.007812 -0.03125 6.617188 -0.769531 4.203125 -1.8125 L 4.390625 -10.6875 C 6.679688 -9.445312 8.910156 -8.53125 11.078125 -7.9375 C 13.242188 -7.351562 15.382812 -7.039062 17.5 -7 C 19.238281 -6.957031 20.515625 -7.207031 21.328125 -7.75 C 22.148438 -8.289062 22.566406 -9.054688 22.578125 -10.046875 C 22.597656 -10.640625 22.460938 -11.148438 22.171875 -11.578125 C 21.878906 -12.003906 21.410156 -12.40625 20.765625 -12.78125 C 20.117188 -13.15625 19.269531 -13.535156 18.21875 -13.921875 C 17.164062 -14.304688 15.890625 -14.75 14.390625 -15.25 C 12.890625 -15.726562 11.503906 -16.320312 10.234375 -17.03125 C 8.960938 -17.738281 7.867188 -18.578125 6.953125 -19.546875 C 6.046875 -20.523438 5.335938 -21.65625 4.828125 -22.9375 C 4.328125 -24.226562 4.09375 -25.691406 4.125 -27.328125 C 4.15625 -29.015625 4.484375 -30.550781 5.109375 -31.9375 C 5.734375 -33.320312 6.664062 -34.5 7.90625 -35.46875 C 9.144531 -36.4375 10.707031 -37.175781 12.59375 -37.6875 C 14.476562 -38.207031 16.710938 -38.441406 19.296875 -38.390625 C 20.316406 -38.367188 21.398438 -38.300781 22.546875 -38.1875 C 23.691406 -38.082031 24.859375 -37.925781 26.046875 -37.71875 C 27.242188 -37.519531 28.421875 -37.265625 29.578125 -36.953125 C 30.742188 -36.648438 31.84375 -36.296875 32.875 -35.890625 Z M 32.296875 -27.546875 "/></g></g><g style="fill:#ffffff;fill-opacity:1;"><g transform="translate(94.086997, 352.760471)"><path style="stroke:none" d="M 5.34375 -37.953125 L 20.03125 -37.65625 C 22.582031 -37.601562 24.816406 -37.398438 26.734375 -37.046875 C 28.660156 -36.703125 30.328125 -36.226562 31.734375 -35.625 C 33.140625 -35.03125 34.300781 -34.316406 35.21875 -33.484375 C 36.144531 -32.660156 36.878906 -31.765625 37.421875 -30.796875 C 37.972656 -29.828125 38.351562 -28.789062 38.5625 -27.6875 C 38.769531 -26.59375 38.863281 -25.460938 38.84375 -24.296875 C 38.820312 -23.304688 38.6875 -22.320312 38.4375 -21.34375 C 38.195312 -20.363281 37.804688 -19.425781 37.265625 -18.53125 C 36.722656 -17.644531 36.003906 -16.820312 35.109375 -16.0625 C 34.210938 -15.3125 33.117188 -14.660156 31.828125 -14.109375 C 30.535156 -13.566406 29.007812 -13.148438 27.25 -12.859375 C 25.5 -12.578125 23.484375 -12.457031 21.203125 -12.5 C 20.878906 -12.507812 20.472656 -12.523438 19.984375 -12.546875 C 19.503906 -12.566406 19.03125 -12.597656 18.5625 -12.640625 L 16.90625 -12.78125 L 16.640625 0.328125 L 4.578125 0.09375 Z M 17.015625 -18.625 L 19.78125 -18.5625 C 21.070312 -18.539062 22.160156 -18.675781 23.046875 -18.96875 C 23.929688 -19.257812 24.648438 -19.664062 25.203125 -20.1875 C 25.753906 -20.71875 26.148438 -21.347656 26.390625 -22.078125 C 26.640625 -22.816406 26.773438 -23.609375 26.796875 -24.453125 C 26.828125 -25.796875 26.679688 -26.910156 26.359375 -27.796875 C 26.035156 -28.691406 25.566406 -29.40625 24.953125 -29.9375 C 24.347656 -30.476562 23.625 -30.863281 22.78125 -31.09375 C 21.945312 -31.332031 21.035156 -31.460938 20.046875 -31.484375 L 17.28125 -31.546875 Z M 17.015625 -18.625 "/></g></g><g style="fill:#ffffff;fill-opacity:1;"><g transform="translate(134.480575, 353.568989)"><path style="stroke:none" d="M 5.34375 -37.953125 L 17.40625 -37.71875 L 16.796875 -7.421875 L 29.703125 -7.15625 L 29.546875 0.59375 L 4.578125 0.09375 Z M 5.34375 -37.953125 "/></g></g><g style="fill:#ffffff;fill-opacity:1;"><g transform="translate(165.428354, 354.188439)"><path style="stroke:none" d="M 37.265625 0.75 L 22.90625 0.453125 L 21.28125 -7.6875 L 11.84375 -7.875 L 9.984375 0.203125 L 0.265625 0 L 10.71875 -37.84375 L 27.578125 -37.515625 Z M 17.171875 -31.8125 L 13.125 -14.15625 L 20.8125 -14 L 18 -31.796875 Z M 17.171875 -31.8125 "/></g></g><g style="fill:#ffffff;fill-opacity:1;"><g transform="translate(202.969355, 354.93986)"><path style="stroke:none" d="M 2.84375 -18.90625 C 2.90625 -21.96875 3.515625 -24.710938 4.671875 -27.140625 C 5.828125 -29.578125 7.363281 -31.628906 9.28125 -33.296875 C 11.195312 -34.972656 13.410156 -36.238281 15.921875 -37.09375 C 18.441406 -37.957031 21.101562 -38.359375 23.90625 -38.296875 C 25.863281 -38.265625 27.847656 -38.039062 29.859375 -37.625 C 31.878906 -37.207031 33.882812 -36.488281 35.875 -35.46875 L 34.03125 -26.890625 C 32.46875 -27.785156 30.921875 -28.460938 29.390625 -28.921875 C 27.859375 -29.378906 26.445312 -29.625 25.15625 -29.65625 C 23.59375 -29.6875 22.1875 -29.457031 20.9375 -28.96875 C 19.6875 -28.476562 18.617188 -27.757812 17.734375 -26.8125 C 16.859375 -25.863281 16.175781 -24.703125 15.6875 -23.328125 C 15.207031 -21.953125 14.945312 -20.394531 14.90625 -18.65625 C 14.875 -16.914062 15.070312 -15.347656 15.5 -13.953125 C 15.9375 -12.566406 16.570312 -11.378906 17.40625 -10.390625 C 18.25 -9.398438 19.285156 -8.640625 20.515625 -8.109375 C 21.742188 -7.578125 23.140625 -7.296875 24.703125 -7.265625 C 25.992188 -7.234375 27.414062 -7.414062 28.96875 -7.8125 C 30.519531 -8.21875 32.09375 -8.835938 33.6875 -9.671875 L 35.1875 -1.015625 C 33.15625 -0.0859375 31.125 0.523438 29.09375 0.828125 C 27.0625 1.140625 25.066406 1.28125 23.109375 1.25 C 20.304688 1.1875 17.664062 0.679688 15.1875 -0.265625 C 12.707031 -1.222656 10.539062 -2.570312 8.6875 -4.3125 C 6.84375 -6.050781 5.390625 -8.148438 4.328125 -10.609375 C 3.273438 -13.066406 2.78125 -15.832031 2.84375 -18.90625 Z M 2.84375 -18.90625 "/></g></g><g style="fill:#ffffff;fill-opacity:1;"><g transform="translate(241.371512, 355.708517)"><path style="stroke:none" d="M 5.375 -37.953125 L 32.0625 -37.421875 L 31.921875 -30.390625 L 17.28125 -30.6875 L 17.109375 -22.625 L 30.03125 -22.359375 L 29.90625 -15.46875 L 16.984375 -15.734375 L 16.8125 -7.421875 L 31.453125 -7.125 L 31.296875 0.625 L 4.609375 0.09375 Z M 5.375 -37.953125 "/></g></g></g></svg>