<svg xmlns="http://www.w3.org/2000/svg" xmlns:xlink="http://www.w3.org/1999/xlink" width="500" zoomAndPan="magnify" viewBox="0 0 375 374.999991" height="500" preserveAspectRatio="xMidYMid meet" version="1.0"><defs><g/><clipPath id="127ca3b0e2"><path d="M 46 216 L 340 216 L 340 222.585938 L 46 222.585938 Z M 46 216 " clip-rule="nonzero"/></clipPath></defs><path fill="#000000" d="M 105.683594 169.074219 C 103.121094 167.039062 100.558594 165.003906 98.4375 162.972656 C 93.84375 158.546875 91.984375 152.089844 92.957031 145.722656 C 93.578125 141.742188 93.578125 137.761719 92.957031 133.695312 C 91.898438 125.820312 88.894531 118.039062 83.589844 111.933594 C 78.023438 105.566406 69.804688 102.824219 61.140625 105.210938 C 59.199219 105.742188 57.34375 106.628906 55.839844 107.6875 C 52.214844 110.164062 47.796875 111.136719 43.464844 110.34375 C 30.210938 108.042969 29.769531 117.59375 33.125 117.683594 C 37.191406 117.773438 47.265625 116.710938 47.796875 125.023438 C 47.621094 129.003906 48.238281 133.429688 49.476562 138.117188 C 50.183594 140.769531 51.15625 143.335938 52.480469 145.722656 C 55.222656 150.941406 58.136719 153.859375 63.085938 157.042969 C 67.945312 160.140625 73.867188 162.085938 80.9375 160.847656 C 81.46875 160.757812 83.855469 160.40625 84.386719 161.023438 C 84.5625 161.203125 94.992188 173.671875 94.992188 173.671875 C 96.933594 175.796875 98.789062 181.632812 100.292969 187.03125 C 101.175781 182.339844 102.855469 177.300781 104.625 172.433594 C 104.976562 171.285156 105.332031 170.222656 105.683594 169.074219 Z M 58.757812 138.910156 C 53.808594 128.917969 55.398438 118.125 62.203125 114.765625 C 69.007812 111.402344 78.550781 116.710938 83.5 126.707031 C 88.449219 136.699219 86.859375 147.492188 80.054688 150.851562 C 73.25 154.125 63.703125 148.820312 58.757812 138.910156 Z M 58.757812 138.910156 " fill-opacity="1" fill-rule="nonzero"/><path fill="#000000" d="M 98.4375 131.660156 C 100.382812 135.285156 102.679688 138.558594 105.507812 141.386719 C 110.015625 145.988281 112.222656 152.269531 111.074219 158.546875 C 109.484375 167.660156 104.183594 178.359375 102.589844 187.472656 C 102.0625 190.390625 102.324219 193.398438 103.386719 196.226562 L 112.753906 219.402344 L 134.496094 219.402344 L 126.71875 187.824219 C 125.394531 183.136719 119.472656 169.871094 120.089844 165.09375 C 120.089844 165.09375 121.238281 148.90625 121.328125 148.640625 C 121.414062 147.84375 123.535156 146.785156 124.066406 146.519531 C 130.429688 143.335938 134.140625 138.292969 136.351562 132.984375 C 138.5625 127.5 139.179688 123.433594 138.382812 117.59375 C 138.03125 114.941406 137.324219 112.289062 136.441406 109.722656 C 130.339844 93.449219 118.851562 85.664062 107.71875 89.820312 C 99.234375 93.007812 94.195312 99.992188 93.398438 108.484375 C 91.542969 109.988281 90.394531 109.898438 90.835938 115.648438 C 91.015625 117.683594 93.136719 119.277344 94.195312 119.894531 C 94.902344 124.050781 96.40625 127.945312 98.4375 131.660156 Z M 114.082031 187.117188 C 112.667969 187.558594 111.074219 186.765625 110.546875 185.347656 C 110.101562 183.933594 110.898438 182.339844 112.3125 181.8125 C 113.726562 181.367188 115.316406 182.164062 115.847656 183.578125 C 116.378906 184.996094 115.496094 186.585938 114.082031 187.117188 Z M 112.222656 98.222656 C 119.738281 96.984375 127.335938 104.859375 129.191406 115.828125 C 131.046875 126.792969 126.363281 136.699219 118.851562 137.9375 C 111.339844 139.175781 103.738281 131.304688 101.882812 120.335938 C 100.027344 109.371094 104.710938 99.550781 112.222656 98.222656 Z M 112.222656 98.222656 " fill-opacity="1" fill-rule="nonzero"/><path fill="#000000" d="M 285.355469 132.277344 C 282.703125 144.925781 284.824219 158.992188 276.253906 169.691406 C 269.976562 177.566406 259.636719 183.316406 250.710938 187.207031 C 251.507812 188.621094 252.304688 189.859375 252.921875 190.832031 C 254.777344 193.839844 255.574219 197.289062 255.21875 200.828125 C 263.4375 185.703125 273.777344 183.667969 278.460938 183.578125 C 279.789062 183.578125 281.027344 182.695312 281.378906 181.367188 C 284.207031 170.136719 296.757812 161.996094 308.15625 160.230469 C 326.273438 157.398438 345.1875 137.054688 332.460938 118.832031 C 321.945312 103.886719 299.144531 107.953125 289.6875 121.574219 C 287.652344 121.753906 283.855469 122.371094 282.261719 124.847656 C 280.054688 128.296875 285.355469 132.277344 285.355469 132.277344 Z M 303.472656 123.078125 C 311.605469 117.417969 321.855469 118.214844 326.363281 124.761719 C 330.871094 131.304688 328.042969 141.210938 319.910156 146.785156 C 311.78125 152.445312 301.527344 151.648438 297.023438 145.105469 C 292.425781 138.558594 295.34375 128.738281 303.472656 123.078125 Z M 303.472656 123.078125 " fill-opacity="1" fill-rule="nonzero"/><path fill="#000000" d="M 226.320312 219.492188 L 248.503906 219.492188 L 254.777344 208.964844 C 256.632812 205.957031 257.074219 202.242188 256.101562 198.882812 C 253.363281 189.683594 248.769531 170.136719 253.1875 155.628906 C 257.695312 140.945312 273.160156 134.933594 281.996094 123.433594 C 292.25 110.078125 286.417969 87.699219 270.949219 81.949219 C 269.890625 71.335938 255.660156 59.835938 252.039062 61.515625 C 248.945312 62.933594 261.492188 71.335938 261.140625 80.621094 C 240.8125 82.125 235.335938 107.953125 243.023438 123.875 C 247.972656 134.3125 248.324219 149.261719 240.636719 157.929688 C 239.753906 158.992188 239.664062 160.492188 240.460938 161.644531 C 243.113281 165.625 247.441406 175.882812 238.515625 192.070312 C 235.777344 197.023438 231.355469 207.109375 226.320312 219.492188 Z M 261.9375 88.761719 C 269.890625 88.847656 276.339844 96.898438 276.253906 106.714844 C 276.164062 116.621094 269.625 124.582031 261.671875 124.496094 C 253.71875 124.40625 247.265625 116.355469 247.355469 106.539062 C 247.441406 96.722656 253.980469 88.761719 261.9375 88.761719 Z M 241.433594 204.101562 C 242.667969 202.773438 244.789062 202.683594 246.117188 203.921875 C 247.441406 205.160156 247.53125 207.285156 246.292969 208.613281 C 245.054688 209.9375 242.933594 210.027344 241.609375 208.789062 C 240.285156 207.550781 240.195312 205.515625 241.433594 204.101562 Z M 241.433594 204.101562 " fill-opacity="1" fill-rule="nonzero"/><path fill="#000000" d="M 145.453125 219.492188 L 176.210938 219.492188 C 177.003906 219.3125 177.535156 218.519531 177.445312 217.632812 C 177.359375 216.75 176.5625 216.128906 175.679688 216.21875 L 153.410156 218.605469 C 152.613281 218.695312 151.90625 218.164062 151.816406 217.367188 L 151.816406 217.28125 C 151.730469 216.484375 152.257812 215.777344 152.964844 215.6875 L 174.972656 211.617188 C 175.855469 211.441406 176.476562 210.558594 176.296875 209.585938 C 176.121094 208.789062 175.324219 208.257812 174.441406 208.347656 L 152.257812 210.734375 C 151.464844 210.824219 150.757812 210.292969 150.667969 209.496094 L 150.667969 209.40625 C 150.582031 208.613281 151.109375 207.902344 151.816406 207.816406 L 173.824219 203.746094 C 174.707031 203.570312 175.324219 202.683594 175.148438 201.710938 C 174.972656 200.917969 174.175781 200.386719 173.292969 200.472656 L 151.199219 202.863281 C 150.402344 202.949219 149.695312 202.421875 149.609375 201.625 L 149.609375 201.535156 C 149.519531 200.738281 150.050781 200.03125 150.757812 199.945312 L 172.675781 195.875 C 173.558594 195.699219 174.089844 194.902344 174 194.015625 C 173.910156 193.132812 173.117188 192.511719 172.234375 192.601562 L 150.136719 194.988281 C 149.34375 195.078125 148.636719 194.546875 148.546875 193.75 L 148.546875 193.664062 C 148.460938 192.867188 148.988281 192.160156 149.695312 192.070312 L 171.527344 188.003906 C 172.410156 187.824219 173.027344 186.941406 172.851562 185.96875 C 172.675781 185.171875 171.878906 184.640625 170.996094 184.730469 L 149.078125 187.117188 C 148.28125 187.207031 147.574219 186.675781 147.488281 185.878906 L 147.488281 185.792969 C 147.398438 184.996094 147.929688 184.289062 148.636719 184.199219 L 170.375 180.128906 C 171.261719 179.953125 171.878906 179.070312 171.703125 178.097656 C 171.527344 177.300781 170.730469 176.769531 169.847656 176.859375 L 148.015625 179.246094 C 147.222656 179.335938 146.515625 178.804688 146.425781 178.007812 L 146.425781 177.917969 C 146.339844 177.121094 146.867188 176.414062 147.574219 176.328125 L 169.226562 172.257812 C 170.113281 172.082031 170.640625 171.285156 170.554688 170.402344 C 170.464844 169.515625 169.667969 168.898438 168.785156 168.984375 L 146.957031 171.375 C 146.160156 171.460938 145.453125 170.929688 145.367188 170.136719 L 145.367188 170.046875 C 145.277344 169.25 145.808594 168.542969 146.515625 168.453125 L 168.078125 164.472656 C 168.960938 164.296875 169.582031 163.414062 169.40625 162.441406 C 169.226562 161.644531 168.433594 161.113281 167.546875 161.203125 L 145.808594 163.5 C 145.011719 163.589844 144.304688 163.058594 144.21875 162.261719 L 144.21875 162.175781 C 144.128906 161.378906 144.660156 160.671875 145.367188 160.582031 L 166.929688 156.691406 C 167.8125 156.515625 168.433594 155.628906 168.253906 154.65625 C 168.078125 153.859375 167.285156 153.328125 166.398438 153.417969 L 144.746094 155.71875 C 143.953125 155.804688 143.246094 155.277344 143.15625 154.480469 C 143.066406 153.683594 143.597656 152.976562 144.304688 152.886719 L 165.78125 148.820312 C 166.664062 148.640625 167.195312 147.84375 167.105469 146.960938 C 167.019531 146.078125 166.222656 145.457031 165.339844 145.546875 L 142.273438 147.933594 C 138.03125 148.109375 134.9375 151.914062 135.554688 156.070312 Z M 145.453125 219.492188 " fill-opacity="1" fill-rule="nonzero"/><path fill="#000000" d="M 192.914062 219.492188 L 204.492188 219.492188 C 203.695312 210.46875 205.109375 203.660156 218.632812 197.644531 L 229.5 192.070312 C 230.207031 191.984375 230.648438 191.363281 230.648438 190.65625 C 230.5625 189.949219 229.941406 189.417969 229.234375 189.507812 L 195.476562 193.398438 C 195.035156 193.488281 194.679688 193.132812 194.679688 192.777344 C 194.59375 192.335938 194.945312 191.984375 195.300781 191.984375 L 229.941406 186.941406 C 230.207031 186.941406 230.386719 186.675781 230.386719 186.320312 C 230.386719 186.054688 230.121094 185.792969 229.765625 185.878906 L 195.035156 189.859375 C 194.59375 189.949219 194.238281 189.59375 194.238281 189.152344 C 194.148438 188.710938 194.503906 188.355469 194.855469 188.355469 L 229.5 183.316406 C 229.765625 183.316406 229.941406 183.050781 229.941406 182.695312 C 229.941406 182.429688 229.679688 182.164062 229.324219 182.253906 L 194.59375 186.234375 C 194.148438 186.320312 193.796875 185.96875 193.796875 185.527344 C 193.707031 185.082031 194.0625 184.730469 194.414062 184.730469 L 228.972656 179.6875 C 229.234375 179.6875 229.414062 179.421875 229.414062 179.070312 C 229.414062 178.714844 229.148438 178.539062 228.792969 178.625 L 194.0625 182.605469 C 193.621094 182.695312 193.265625 182.339844 193.265625 181.898438 C 193.179688 181.457031 193.53125 181.101562 193.886719 181.101562 L 228.441406 176.0625 C 228.707031 176.0625 228.882812 175.796875 228.882812 175.441406 C 228.882812 175.175781 228.617188 174.910156 228.265625 175 L 193.621094 178.980469 C 193.179688 179.070312 192.824219 178.714844 192.824219 178.273438 C 192.738281 177.832031 193.089844 177.476562 193.445312 177.476562 L 228 172.433594 C 228.265625 172.433594 228.441406 172.167969 228.441406 171.816406 C 228.441406 171.550781 228.175781 171.285156 227.820312 171.375 L 193.179688 175.355469 C 192.738281 175.441406 192.382812 175.089844 192.382812 174.734375 C 192.292969 174.292969 192.648438 173.9375 193 173.9375 L 227.46875 168.984375 C 227.734375 168.984375 227.910156 168.71875 227.910156 168.367188 C 227.910156 168.101562 227.644531 167.835938 227.292969 167.925781 L 192.738281 171.902344 C 192.292969 171.992188 191.941406 171.640625 191.941406 171.285156 C 191.851562 170.84375 192.207031 170.488281 192.558594 170.488281 L 227.027344 165.535156 C 227.292969 165.535156 227.46875 165.269531 227.46875 164.917969 C 227.46875 164.652344 227.203125 164.386719 226.851562 164.472656 L 192.292969 168.453125 C 191.851562 168.542969 191.5 168.1875 191.5 167.835938 C 191.410156 167.394531 191.765625 167.039062 192.117188 167.039062 L 226.496094 162.085938 C 226.761719 162.085938 226.9375 161.820312 226.9375 161.46875 C 226.9375 161.203125 226.671875 160.9375 226.320312 161.023438 L 191.765625 165.003906 C 191.324219 165.09375 190.96875 164.738281 190.96875 164.386719 C 190.878906 163.945312 191.234375 163.589844 191.585938 163.589844 L 225.964844 158.636719 C 226.230469 158.636719 226.40625 158.371094 226.40625 158.015625 C 226.40625 157.753906 226.144531 157.488281 225.789062 157.574219 L 191.324219 161.554688 C 190.878906 161.644531 190.527344 161.289062 190.527344 160.9375 C 190.4375 160.492188 190.792969 160.140625 191.144531 160.140625 L 225.523438 155.1875 C 225.789062 155.1875 225.964844 154.921875 225.964844 154.566406 C 225.964844 154.300781 225.703125 154.035156 225.347656 154.125 L 190.878906 158.105469 C 190.4375 158.195312 190.085938 157.839844 190.085938 157.488281 C 189.996094 157.042969 190.351562 156.691406 190.703125 156.691406 L 224.992188 151.738281 C 225.257812 151.738281 225.4375 151.472656 225.4375 151.117188 C 225.4375 150.765625 225.171875 150.585938 224.816406 150.675781 L 190.4375 154.65625 C 189.996094 154.746094 189.644531 154.390625 189.644531 154.035156 C 189.554688 153.59375 189.910156 153.242188 190.261719 153.242188 L 224.550781 148.289062 C 224.816406 148.289062 224.992188 148.023438 224.992188 147.667969 C 224.992188 147.402344 224.730469 147.136719 224.375 147.226562 L 189.996094 151.207031 C 189.554688 151.296875 189.203125 150.941406 189.203125 150.585938 C 189.113281 150.144531 189.464844 149.792969 189.820312 149.792969 L 224.023438 144.839844 C 224.285156 144.839844 224.464844 144.574219 224.464844 144.21875 C 224.464844 143.953125 224.199219 143.6875 223.84375 143.777344 L 189.464844 147.757812 C 189.023438 147.84375 188.671875 147.492188 188.671875 147.136719 C 188.582031 146.695312 188.9375 146.339844 189.289062 146.339844 L 223.492188 141.386719 C 223.757812 141.386719 223.933594 141.125 223.933594 140.769531 C 223.933594 140.414062 223.667969 140.238281 223.316406 140.328125 L 189.023438 144.308594 C 188.582031 144.394531 188.230469 144.042969 188.230469 143.601562 C 188.140625 143.15625 188.496094 142.804688 188.847656 142.804688 L 223.050781 137.851562 C 223.316406 137.851562 223.492188 137.585938 223.492188 137.230469 C 223.492188 136.964844 223.226562 136.699219 222.875 136.789062 L 188.582031 140.679688 C 188.140625 140.769531 187.789062 140.414062 187.789062 140.0625 C 187.699219 139.621094 188.050781 139.265625 188.40625 139.265625 L 222.519531 134.3125 C 222.785156 134.3125 222.960938 134.046875 222.960938 133.691406 C 222.960938 133.429688 222.695312 133.164062 222.34375 133.25 L 188.140625 137.144531 C 187.699219 137.230469 187.34375 136.878906 187.34375 136.523438 C 187.257812 136.082031 187.609375 135.726562 187.964844 135.726562 L 222.078125 130.773438 C 222.34375 130.773438 222.519531 130.507812 222.519531 130.15625 C 222.519531 129.890625 222.253906 129.625 221.902344 129.714844 L 187.699219 133.605469 C 187.257812 133.691406 186.902344 133.339844 186.902344 132.984375 C 186.816406 132.542969 187.167969 132.191406 187.523438 132.191406 L 221.546875 127.234375 C 221.8125 127.234375 221.988281 126.972656 221.988281 126.617188 C 221.988281 126.351562 221.722656 126.085938 221.371094 126.175781 L 187.167969 130.066406 C 186.726562 130.15625 186.375 129.800781 186.375 129.449219 C 186.285156 129.003906 186.636719 128.652344 186.992188 128.652344 L 221.015625 123.699219 C 221.28125 123.699219 221.460938 123.433594 221.460938 123.078125 C 221.460938 122.8125 221.195312 122.546875 220.839844 122.636719 L 186.726562 126.527344 C 186.285156 126.617188 185.929688 126.261719 185.929688 125.910156 C 185.84375 125.46875 186.195312 125.113281 186.550781 125.113281 L 220.574219 120.160156 C 220.839844 120.160156 221.015625 119.894531 221.015625 119.542969 C 221.015625 119.277344 220.753906 119.011719 220.398438 119.097656 L 186.285156 122.992188 C 185.84375 123.078125 185.488281 122.726562 185.488281 122.371094 C 185.402344 121.929688 185.753906 121.574219 186.109375 121.574219 L 220.046875 116.621094 C 220.308594 116.621094 220.488281 116.355469 220.488281 116.003906 C 220.488281 115.738281 220.222656 115.472656 219.867188 115.5625 L 185.84375 119.453125 C 185.402344 119.542969 185.046875 119.1875 185.046875 118.832031 C 184.960938 118.390625 185.3125 118.039062 185.667969 118.039062 L 219.601562 113.085938 C 219.867188 113.085938 220.046875 112.820312 220.046875 112.464844 C 220.046875 112.199219 219.78125 111.933594 219.425781 112.023438 L 185.402344 115.914062 C 184.960938 116.003906 184.605469 115.648438 184.605469 115.296875 C 184.515625 114.851562 184.871094 114.5 185.222656 114.5 L 219.074219 109.546875 C 219.339844 109.546875 219.515625 109.28125 219.515625 108.925781 C 219.515625 108.660156 219.25 108.394531 218.894531 108.484375 L 184.871094 112.375 C 184.429688 112.464844 184.074219 112.109375 184.074219 111.757812 C 183.988281 111.316406 184.339844 110.960938 184.695312 110.960938 L 218.542969 106.097656 C 218.808594 106.097656 218.984375 105.832031 218.984375 105.476562 C 218.984375 105.210938 218.71875 104.945312 218.367188 105.035156 L 184.429688 108.925781 C 183.988281 109.015625 183.632812 108.660156 183.632812 108.21875 C 183.546875 107.777344 183.898438 107.421875 184.253906 107.421875 L 218.101562 102.558594 C 218.367188 102.558594 218.542969 102.292969 218.542969 101.9375 C 218.542969 101.675781 218.277344 101.410156 217.925781 101.496094 L 183.988281 105.390625 C 183.546875 105.476562 183.191406 105.125 183.191406 104.679688 C 183.101562 104.238281 183.457031 103.886719 183.808594 103.886719 L 217.570312 99.019531 C 217.835938 99.019531 218.011719 98.753906 218.011719 98.402344 C 218.011719 98.136719 217.746094 97.871094 217.394531 97.960938 L 183.546875 101.851562 C 183.101562 101.9375 182.75 101.585938 182.75 101.144531 C 182.660156 100.699219 183.015625 100.347656 183.367188 100.347656 L 217.128906 95.480469 C 217.394531 95.480469 217.570312 95.21875 217.570312 94.863281 C 217.570312 94.597656 217.304688 94.332031 216.953125 94.421875 L 183.101562 98.3125 C 182.660156 98.402344 182.308594 98.046875 182.308594 97.605469 C 182.21875 97.164062 182.574219 96.808594 182.925781 96.808594 L 216.597656 91.945312 C 216.863281 91.945312 217.039062 91.679688 217.039062 91.324219 C 217.039062 91.058594 216.773438 90.792969 216.421875 90.882812 L 182.574219 94.773438 C 182.132812 94.863281 181.777344 94.507812 181.777344 94.15625 C 181.6875 93.714844 182.042969 93.359375 182.394531 93.359375 L 216.066406 88.496094 C 216.332031 88.496094 216.511719 88.230469 216.511719 87.875 C 216.511719 87.609375 216.246094 87.34375 215.890625 87.433594 L 182.132812 91.324219 C 181.6875 91.414062 181.335938 91.058594 181.335938 90.707031 C 181.246094 90.265625 181.601562 89.910156 181.953125 89.910156 L 215.625 85.046875 C 215.890625 85.046875 216.066406 84.78125 216.066406 84.425781 C 216.066406 84.160156 215.804688 83.894531 215.449219 83.984375 L 181.6875 87.875 C 181.246094 87.964844 180.894531 87.609375 180.894531 87.257812 C 180.804688 86.8125 181.160156 86.460938 181.511719 86.460938 L 215.097656 81.59375 C 215.359375 81.59375 215.539062 81.332031 215.539062 80.976562 C 215.539062 80.710938 215.273438 80.445312 214.917969 80.535156 L 181.246094 84.425781 C 180.804688 84.515625 180.453125 84.160156 180.453125 83.808594 C 180.363281 83.363281 180.71875 83.011719 181.070312 83.011719 L 214.652344 78.144531 C 214.917969 78.144531 215.097656 77.878906 215.097656 77.527344 C 215.097656 77.261719 214.832031 76.996094 214.476562 77.085938 L 180.804688 80.976562 C 180.363281 81.066406 180.011719 80.710938 180.011719 80.355469 C 179.921875 79.914062 180.273438 79.5625 180.628906 79.5625 L 214.125 74.695312 C 214.390625 74.695312 214.566406 74.429688 214.566406 74.078125 C 214.566406 73.722656 214.300781 73.546875 213.945312 73.636719 L 180.273438 77.527344 C 179.832031 77.617188 179.480469 77.261719 179.480469 76.90625 C 179.390625 76.464844 179.746094 76.113281 180.097656 76.113281 L 213.59375 71.246094 C 213.859375 71.246094 214.035156 70.980469 214.035156 70.628906 C 214.035156 70.363281 213.769531 70.097656 213.417969 70.183594 L 179.832031 74.078125 C 179.390625 74.164062 179.039062 73.8125 179.039062 73.371094 C 178.949219 72.925781 179.304688 72.574219 179.65625 72.574219 L 213.152344 67.707031 C 213.417969 67.707031 213.59375 67.445312 213.59375 67.089844 C 213.59375 66.824219 213.328125 66.558594 212.976562 66.648438 L 178.683594 70.628906 L 178.597656 69.832031 L 212.179688 65.144531 C 212.796875 65.054688 213.238281 64.4375 213.152344 63.816406 C 213.0625 63.199219 212.53125 62.667969 211.824219 62.753906 L 177.976562 64.347656 C 173.46875 64.878906 170.375 69.035156 170.90625 73.457031 Z M 192.914062 219.492188 " fill-opacity="1" fill-rule="nonzero"/><g clip-path="url(#127ca3b0e2)"><path fill="#000000" d="M 336.527344 222.585938 L 49.210938 222.585938 C 47.53125 222.585938 46.117188 221.171875 46.117188 219.492188 C 46.117188 217.808594 47.53125 216.394531 49.210938 216.394531 L 336.527344 216.394531 C 338.207031 216.394531 339.621094 217.808594 339.621094 219.492188 C 339.621094 221.171875 338.292969 222.585938 336.527344 222.585938 Z M 336.527344 222.585938 " fill-opacity="1" fill-rule="nonzero"/></g><g fill="#000000" fill-opacity="1"><g transform="translate(111.412684, 307.43773)"><g><path d="M 6.8125 0.25 C 6.257812 0.25 5.617188 0.1875 4.890625 0.0625 C 4.171875 -0.0625 3.453125 -0.234375 2.734375 -0.453125 C 2.023438 -0.679688 1.414062 -0.941406 0.90625 -1.234375 L 1.140625 -2.15625 C 1.710938 -1.8125 2.332031 -1.523438 3 -1.296875 C 3.675781 -1.078125 4.347656 -0.910156 5.015625 -0.796875 C 5.679688 -0.679688 6.304688 -0.625 6.890625 -0.625 C 7.722656 -0.625 8.457031 -0.753906 9.09375 -1.015625 C 9.726562 -1.285156 10.226562 -1.660156 10.59375 -2.140625 C 10.957031 -2.617188 11.140625 -3.15625 11.140625 -3.75 C 11.140625 -4.300781 11.003906 -4.769531 10.734375 -5.15625 C 10.460938 -5.550781 10 -5.894531 9.34375 -6.1875 C 8.6875 -6.476562 7.78125 -6.742188 6.625 -6.984375 C 4.820312 -7.347656 3.515625 -7.832031 2.703125 -8.4375 C 1.890625 -9.050781 1.484375 -9.910156 1.484375 -11.015625 C 1.484375 -11.753906 1.703125 -12.414062 2.140625 -13 C 2.578125 -13.59375 3.179688 -14.0625 3.953125 -14.40625 C 4.734375 -14.75 5.625 -14.921875 6.625 -14.921875 C 7.632812 -14.921875 8.539062 -14.8125 9.34375 -14.59375 C 10.15625 -14.375 10.816406 -14.125 11.328125 -13.84375 L 11.328125 -12.84375 C 10.828125 -13.125 10.171875 -13.390625 9.359375 -13.640625 C 8.554688 -13.890625 7.625 -14.015625 6.5625 -14.015625 C 5.707031 -14.015625 4.976562 -13.875 4.375 -13.59375 C 3.769531 -13.3125 3.304688 -12.945312 2.984375 -12.5 C 2.660156 -12.050781 2.5 -11.5625 2.5 -11.03125 C 2.5 -10.5 2.640625 -10.039062 2.921875 -9.65625 C 3.210938 -9.28125 3.679688 -8.945312 4.328125 -8.65625 C 4.984375 -8.363281 5.863281 -8.101562 6.96875 -7.875 C 8.851562 -7.476562 10.1875 -6.96875 10.96875 -6.34375 C 11.757812 -5.71875 12.15625 -4.875 12.15625 -3.8125 C 12.15625 -3.019531 11.941406 -2.316406 11.515625 -1.703125 C 11.085938 -1.097656 10.472656 -0.617188 9.671875 -0.265625 C 8.878906 0.078125 7.925781 0.25 6.8125 0.25 Z M 6.8125 0.25 "/></g></g></g><g fill="#000000" fill-opacity="1"><g transform="translate(129.058654, 307.43773)"><g><path d="M 1.671875 0 L 1.671875 -14.6875 L 2.671875 -14.6875 L 2.671875 0 Z M 1.671875 0 "/></g></g></g><g fill="#000000" fill-opacity="1"><g transform="translate(137.829814, 307.43773)"><g><path d="M 13.59375 0.25 L 2.796875 -12.484375 L 2.640625 -12.484375 L 2.640625 0 L 1.671875 0 L 1.671875 -14.921875 L 2.03125 -14.921875 L 12.859375 -2.203125 L 12.984375 -2.203125 L 12.984375 -14.6875 L 13.953125 -14.6875 L 13.953125 0.25 Z M 13.59375 0.25 "/></g></g></g><g fill="#000000" fill-opacity="1"><g transform="translate(157.888557, 307.43773)"><g><path d="M 9.15625 0.25 C 7.59375 0.25 6.207031 -0.0546875 5 -0.671875 C 3.800781 -1.296875 2.859375 -2.171875 2.171875 -3.296875 C 1.492188 -4.429688 1.15625 -5.738281 1.15625 -7.21875 C 1.15625 -8.320312 1.347656 -9.34375 1.734375 -10.28125 C 2.128906 -11.21875 2.679688 -12.03125 3.390625 -12.71875 C 4.109375 -13.414062 4.957031 -13.957031 5.9375 -14.34375 C 6.914062 -14.726562 7.988281 -14.921875 9.15625 -14.921875 C 9.914062 -14.921875 10.65625 -14.835938 11.375 -14.671875 C 12.101562 -14.503906 12.765625 -14.257812 13.359375 -13.9375 L 13.234375 -12.84375 C 12.660156 -13.207031 12.03125 -13.488281 11.34375 -13.6875 C 10.664062 -13.894531 9.925781 -14 9.125 -14 C 7.769531 -14 6.5625 -13.703125 5.5 -13.109375 C 4.445312 -12.515625 3.617188 -11.707031 3.015625 -10.6875 C 2.421875 -9.664062 2.125 -8.507812 2.125 -7.21875 C 2.125 -5.90625 2.421875 -4.757812 3.015625 -3.78125 C 3.617188 -2.800781 4.453125 -2.035156 5.515625 -1.484375 C 6.578125 -0.941406 7.789062 -0.671875 9.15625 -0.671875 C 10.132812 -0.671875 11.054688 -0.820312 11.921875 -1.125 C 12.785156 -1.4375 13.523438 -1.851562 14.140625 -2.375 L 14.140625 -1.296875 C 13.472656 -0.804688 12.71875 -0.425781 11.875 -0.15625 C 11.039062 0.113281 10.132812 0.25 9.15625 0.25 Z M 9.15625 0.25 "/></g></g></g><g fill="#000000" fill-opacity="1"><g transform="translate(177.045131, 307.43773)"><g><path d="M 1.671875 0 L 1.671875 -14.6875 L 12.359375 -14.6875 L 12.359375 -13.765625 L 2.640625 -13.765625 L 2.640625 -7.90625 L 10.90625 -7.90625 L 10.90625 -7.078125 L 2.640625 -7.078125 L 2.640625 -0.921875 L 12.609375 -0.921875 L 12.609375 0 Z M 1.671875 0 "/></g></g></g><g fill="#000000" fill-opacity="1"><g transform="translate(195.236594, 307.43773)"><g/></g></g><g fill="#000000" fill-opacity="1"><g transform="translate(205.329534, 307.43773)"><g><path d="M 1.109375 0 L 1.109375 -0.6875 L 7.390625 -6.59375 C 8.128906 -7.289062 8.679688 -7.894531 9.046875 -8.40625 C 9.421875 -8.925781 9.675781 -9.390625 9.8125 -9.796875 C 9.945312 -10.203125 10.015625 -10.570312 10.015625 -10.90625 C 10.015625 -11.457031 9.851562 -11.96875 9.53125 -12.4375 C 9.21875 -12.914062 8.785156 -13.300781 8.234375 -13.59375 C 7.691406 -13.882812 7.082031 -14.03125 6.40625 -14.03125 C 5.519531 -14.03125 4.785156 -13.941406 4.203125 -13.765625 C 3.628906 -13.585938 3.160156 -13.378906 2.796875 -13.140625 C 2.429688 -12.910156 2.128906 -12.710938 1.890625 -12.546875 L 1.46875 -13.296875 C 1.75 -13.492188 2.09375 -13.71875 2.5 -13.96875 C 2.914062 -14.226562 3.4375 -14.453125 4.0625 -14.640625 C 4.695312 -14.828125 5.484375 -14.921875 6.421875 -14.921875 C 7.328125 -14.921875 8.125 -14.738281 8.8125 -14.375 C 9.5 -14.019531 10.035156 -13.539062 10.421875 -12.9375 C 10.804688 -12.34375 11 -11.675781 11 -10.9375 C 11 -10.488281 10.921875 -10.03125 10.765625 -9.5625 C 10.609375 -9.09375 10.320312 -8.570312 9.90625 -8 C 9.5 -7.425781 8.890625 -6.753906 8.078125 -5.984375 L 2.9375 -1.09375 L 3 -0.90625 L 11.1875 -0.90625 L 11.1875 0 Z M 1.109375 0 "/></g></g></g><g fill="#000000" fill-opacity="1"><g transform="translate(222.681776, 307.43773)"><g><path d="M 6.25 0.25 C 5.144531 0.25 4.191406 -0.0664062 3.390625 -0.703125 C 2.585938 -1.347656 1.96875 -2.242188 1.53125 -3.390625 C 1.09375 -4.546875 0.875 -5.863281 0.875 -7.34375 C 0.875 -8.84375 1.09375 -10.15625 1.53125 -11.28125 C 1.96875 -12.414062 2.585938 -13.304688 3.390625 -13.953125 C 4.191406 -14.597656 5.144531 -14.921875 6.25 -14.921875 C 7.375 -14.921875 8.332031 -14.597656 9.125 -13.953125 C 9.925781 -13.304688 10.539062 -12.414062 10.96875 -11.28125 C 11.40625 -10.15625 11.625 -8.84375 11.625 -7.34375 C 11.625 -5.863281 11.40625 -4.546875 10.96875 -3.390625 C 10.539062 -2.242188 9.925781 -1.347656 9.125 -0.703125 C 8.332031 -0.0664062 7.375 0.25 6.25 0.25 Z M 6.25 -0.671875 C 7.1875 -0.671875 7.984375 -0.953125 8.640625 -1.515625 C 9.296875 -2.085938 9.800781 -2.875 10.15625 -3.875 C 10.507812 -4.875 10.6875 -6.03125 10.6875 -7.34375 C 10.6875 -8.65625 10.507812 -9.8125 10.15625 -10.8125 C 9.800781 -11.8125 9.296875 -12.59375 8.640625 -13.15625 C 7.984375 -13.71875 7.1875 -14 6.25 -14 C 5.332031 -14 4.539062 -13.71875 3.875 -13.15625 C 3.21875 -12.59375 2.710938 -11.8125 2.359375 -10.8125 C 2.015625 -9.8125 1.84375 -8.65625 1.84375 -7.34375 C 1.84375 -6.03125 2.015625 -4.875 2.359375 -3.875 C 2.710938 -2.875 3.21875 -2.085938 3.875 -1.515625 C 4.539062 -0.953125 5.332031 -0.671875 6.25 -0.671875 Z M 6.25 -0.671875 "/></g></g></g><g fill="#000000" fill-opacity="1"><g transform="translate(239.614407, 307.43773)"><g><path d="M 1.109375 0 L 1.109375 -0.6875 L 7.390625 -6.59375 C 8.128906 -7.289062 8.679688 -7.894531 9.046875 -8.40625 C 9.421875 -8.925781 9.675781 -9.390625 9.8125 -9.796875 C 9.945312 -10.203125 10.015625 -10.570312 10.015625 -10.90625 C 10.015625 -11.457031 9.851562 -11.96875 9.53125 -12.4375 C 9.21875 -12.914062 8.785156 -13.300781 8.234375 -13.59375 C 7.691406 -13.882812 7.082031 -14.03125 6.40625 -14.03125 C 5.519531 -14.03125 4.785156 -13.941406 4.203125 -13.765625 C 3.628906 -13.585938 3.160156 -13.378906 2.796875 -13.140625 C 2.429688 -12.910156 2.128906 -12.710938 1.890625 -12.546875 L 1.46875 -13.296875 C 1.75 -13.492188 2.09375 -13.71875 2.5 -13.96875 C 2.914062 -14.226562 3.4375 -14.453125 4.0625 -14.640625 C 4.695312 -14.828125 5.484375 -14.921875 6.421875 -14.921875 C 7.328125 -14.921875 8.125 -14.738281 8.8125 -14.375 C 9.5 -14.019531 10.035156 -13.539062 10.421875 -12.9375 C 10.804688 -12.34375 11 -11.675781 11 -10.9375 C 11 -10.488281 10.921875 -10.03125 10.765625 -9.5625 C 10.609375 -9.09375 10.320312 -8.570312 9.90625 -8 C 9.5 -7.425781 8.890625 -6.753906 8.078125 -5.984375 L 2.9375 -1.09375 L 3 -0.90625 L 11.1875 -0.90625 L 11.1875 0 Z M 1.109375 0 "/></g></g></g><g fill="#000000" fill-opacity="1"><g transform="translate(256.966649, 307.43773)"><g><path d="M 3.9375 0 L 3.9375 -13.703125 L 0.609375 -13.703125 L 0.609375 -14.6875 L 4.9375 -14.6875 L 4.9375 0 Z M 3.9375 0 "/></g></g></g><g fill="#000000" fill-opacity="1"><g transform="translate(52.611831, 275.560286)"><g><path d="M 4.578125 0.09375 L 5.34375 -37.96875 L 18.59375 -37.703125 C 21.851562 -37.640625 24.773438 -37.203125 27.359375 -36.390625 C 29.953125 -35.578125 32.132812 -34.375 33.90625 -32.78125 C 35.675781 -31.195312 37.015625 -29.222656 37.921875 -26.859375 C 38.835938 -24.492188 39.265625 -21.734375 39.203125 -18.578125 C 39.148438 -16.171875 38.859375 -14.023438 38.328125 -12.140625 C 37.796875 -10.253906 37.0625 -8.601562 36.125 -7.1875 C 35.195312 -5.78125 34.082031 -4.585938 32.78125 -3.609375 C 31.488281 -2.640625 30.050781 -1.851562 28.46875 -1.25 C 26.894531 -0.644531 25.203125 -0.21875 23.390625 0.03125 C 21.578125 0.28125 19.6875 0.390625 17.71875 0.359375 Z M 16.8125 -8.28125 L 17.625 -8.265625 C 19.019531 -8.234375 20.296875 -8.335938 21.453125 -8.578125 C 22.609375 -8.816406 23.597656 -9.3125 24.421875 -10.0625 C 25.253906 -10.820312 25.90625 -11.894531 26.375 -13.28125 C 26.84375 -14.675781 27.101562 -16.523438 27.15625 -18.828125 C 27.195312 -20.910156 27.03125 -22.648438 26.65625 -24.046875 C 26.289062 -25.441406 25.726562 -26.5625 24.96875 -27.40625 C 24.21875 -28.257812 23.28125 -28.875 22.15625 -29.25 C 21.039062 -29.625 19.753906 -29.820312 18.296875 -29.84375 L 17.25 -29.875 Z M 16.8125 -8.28125 "/></g></g></g><g fill="#000000" fill-opacity="1"><g transform="translate(94.024895, 276.389209)"><g><path d="M 37.28125 0.75 L 22.90625 0.453125 L 21.296875 -7.6875 L 11.84375 -7.875 L 9.984375 0.203125 L 0.265625 0 L 10.734375 -37.859375 L 27.578125 -37.53125 Z M 17.171875 -31.8125 L 13.125 -14.15625 L 20.828125 -14 L 18 -31.796875 Z M 17.171875 -31.8125 "/></g></g></g><g fill="#000000" fill-opacity="1"><g transform="translate(131.563052, 277.140573)"><g><path d="M 5.34375 -37.96875 L 17 -37.734375 L 31.09375 -18.34375 L 31.484375 -37.453125 L 40.671875 -37.265625 L 39.90625 0.796875 L 27.96875 0.5625 L 14.109375 -19.96875 L 13.703125 0.28125 L 4.578125 0.09375 Z M 5.34375 -37.96875 "/></g></g></g><g fill="#000000" fill-opacity="1"><g transform="translate(176.070659, 278.031437)"><g><path d="M 5.375 -37.96875 L 17.4375 -37.734375 L 16.671875 0.328125 L 4.609375 0.09375 Z M 5.375 -37.96875 "/></g></g></g><g fill="#000000" fill-opacity="1"><g transform="translate(197.328828, 278.456941)"><g><path d="M 5.375 -37.96875 L 32.078125 -37.4375 L 31.9375 -30.390625 L 17.296875 -30.6875 L 17.125 -22.640625 L 30.046875 -22.375 L 29.921875 -15.484375 L 17 -15.75 L 16.828125 -7.421875 L 31.46875 -7.125 L 31.3125 0.625 L 4.609375 0.09375 Z M 5.375 -37.96875 "/></g></g></g><g fill="#000000" fill-opacity="1"><g transform="translate(232.821895, 279.16737)"><g><path d="M 5.34375 -37.96875 L 17.40625 -37.734375 L 16.796875 -7.421875 L 29.71875 -7.15625 L 29.5625 0.59375 L 4.578125 0.09375 Z M 5.34375 -37.96875 "/></g></g></g><g fill="#000000" fill-opacity="1"><g transform="translate(263.76733, 279.786774)"><g><path d="M 11.515625 -29.9375 C 11.523438 -30.550781 11.414062 -31.070312 11.1875 -31.5 C 10.957031 -31.9375 10.578125 -32.300781 10.046875 -32.59375 C 9.523438 -32.882812 8.820312 -33.101562 7.9375 -33.25 C 7.0625 -33.394531 5.976562 -33.484375 4.6875 -33.515625 L 4.796875 -38.671875 L 7.375 -38.625 C 8.71875 -38.59375 10.046875 -38.398438 11.359375 -38.046875 C 12.679688 -37.703125 13.867188 -37.101562 14.921875 -36.25 C 15.972656 -35.40625 16.816406 -34.242188 17.453125 -32.765625 C 18.097656 -31.285156 18.394531 -29.414062 18.34375 -27.15625 C 18.289062 -24.375 17.628906 -22.265625 16.359375 -20.828125 C 15.085938 -19.390625 13.222656 -18.695312 10.765625 -18.75 C 9.546875 -18.769531 8.488281 -18.984375 7.59375 -19.390625 C 6.695312 -19.796875 5.953125 -20.3125 5.359375 -20.9375 C 4.765625 -21.570312 4.328125 -22.273438 4.046875 -23.046875 C 3.773438 -23.828125 3.648438 -24.597656 3.671875 -25.359375 C 3.679688 -26.085938 3.816406 -26.789062 4.078125 -27.46875 C 4.347656 -28.144531 4.710938 -28.734375 5.171875 -29.234375 C 5.628906 -29.734375 6.160156 -30.128906 6.765625 -30.421875 C 7.367188 -30.722656 8.023438 -30.867188 8.734375 -30.859375 C 9.648438 -30.835938 10.578125 -30.53125 11.515625 -29.9375 Z M 11.515625 -29.9375 "/></g></g></g><g fill="#000000" fill-opacity="1"><g transform="translate(283.895316, 280.189656)"><g><path d="M 32.3125 -27.546875 C 31.582031 -27.890625 30.726562 -28.238281 29.75 -28.59375 C 28.78125 -28.945312 27.765625 -29.269531 26.703125 -29.5625 C 25.640625 -29.851562 24.5625 -30.09375 23.46875 -30.28125 C 22.382812 -30.46875 21.359375 -30.570312 20.390625 -30.59375 C 18.703125 -30.625 17.375 -30.4375 16.40625 -30.03125 C 15.445312 -29.625 14.957031 -28.90625 14.9375 -27.875 C 14.925781 -27.394531 15.082031 -26.960938 15.40625 -26.578125 C 15.738281 -26.203125 16.207031 -25.851562 16.8125 -25.53125 C 17.414062 -25.207031 18.140625 -24.890625 18.984375 -24.578125 C 19.828125 -24.265625 20.769531 -23.9375 21.8125 -23.59375 L 23.765625 -22.921875 C 25.398438 -22.390625 26.863281 -21.753906 28.15625 -21.015625 C 29.457031 -20.285156 30.550781 -19.429688 31.4375 -18.453125 C 32.332031 -17.472656 33.007812 -16.359375 33.46875 -15.109375 C 33.925781 -13.867188 34.140625 -12.457031 34.109375 -10.875 C 34.066406 -9.03125 33.738281 -7.351562 33.125 -5.84375 C 32.507812 -4.34375 31.570312 -3.066406 30.3125 -2.015625 C 29.050781 -0.960938 27.445312 -0.160156 25.5 0.390625 C 23.5625 0.953125 21.238281 1.207031 18.53125 1.15625 C 16.125 1.101562 13.738281 0.851562 11.375 0.40625 C 9.007812 -0.03125 6.617188 -0.769531 4.203125 -1.8125 L 4.390625 -10.6875 C 6.679688 -9.457031 8.910156 -8.546875 11.078125 -7.953125 C 13.242188 -7.359375 15.382812 -7.039062 17.5 -7 C 19.25 -6.957031 20.53125 -7.207031 21.34375 -7.75 C 22.15625 -8.289062 22.566406 -9.054688 22.578125 -10.046875 C 22.597656 -10.640625 22.460938 -11.148438 22.171875 -11.578125 C 21.878906 -12.003906 21.410156 -12.40625 20.765625 -12.78125 C 20.117188 -13.15625 19.269531 -13.535156 18.21875 -13.921875 C 17.164062 -14.304688 15.890625 -14.75 14.390625 -15.25 C 12.890625 -15.726562 11.503906 -16.320312 10.234375 -17.03125 C 8.960938 -17.738281 7.867188 -18.582031 6.953125 -19.5625 C 6.046875 -20.539062 5.335938 -21.671875 4.828125 -22.953125 C 4.328125 -24.234375 4.09375 -25.691406 4.125 -27.328125 C 4.15625 -29.015625 4.484375 -30.550781 5.109375 -31.9375 C 5.734375 -33.332031 6.664062 -34.507812 7.90625 -35.46875 C 9.144531 -36.4375 10.707031 -37.179688 12.59375 -37.703125 C 14.476562 -38.222656 16.71875 -38.457031 19.3125 -38.40625 C 20.332031 -38.382812 21.410156 -38.316406 22.546875 -38.203125 C 23.691406 -38.097656 24.859375 -37.941406 26.046875 -37.734375 C 27.242188 -37.523438 28.421875 -37.265625 29.578125 -36.953125 C 30.742188 -36.648438 31.84375 -36.296875 32.875 -35.890625 Z M 32.3125 -27.546875 "/></g></g></g><g fill="#000000" fill-opacity="1"><g transform="translate(94.075653, 353.199784)"><g><path d="M 5.34375 -37.96875 L 20.046875 -37.671875 C 22.585938 -37.617188 24.820312 -37.414062 26.75 -37.0625 C 28.675781 -36.707031 30.335938 -36.234375 31.734375 -35.640625 C 33.140625 -35.046875 34.304688 -34.332031 35.234375 -33.5 C 36.160156 -32.675781 36.894531 -31.773438 37.4375 -30.796875 C 37.988281 -29.828125 38.363281 -28.789062 38.5625 -27.6875 C 38.769531 -26.59375 38.863281 -25.460938 38.84375 -24.296875 C 38.820312 -23.304688 38.6875 -22.320312 38.4375 -21.34375 C 38.195312 -20.363281 37.804688 -19.429688 37.265625 -18.546875 C 36.734375 -17.660156 36.019531 -16.835938 35.125 -16.078125 C 34.226562 -15.316406 33.128906 -14.660156 31.828125 -14.109375 C 30.535156 -13.566406 29.007812 -13.148438 27.25 -12.859375 C 25.5 -12.578125 23.488281 -12.457031 21.21875 -12.5 C 20.894531 -12.507812 20.488281 -12.523438 20 -12.546875 C 19.519531 -12.566406 19.046875 -12.597656 18.578125 -12.640625 L 16.90625 -12.78125 L 16.640625 0.328125 L 4.578125 0.09375 Z M 17.015625 -18.625 L 19.78125 -18.5625 C 21.070312 -18.539062 22.160156 -18.675781 23.046875 -18.96875 C 23.929688 -19.257812 24.648438 -19.671875 25.203125 -20.203125 C 25.765625 -20.734375 26.164062 -21.363281 26.40625 -22.09375 C 26.65625 -22.820312 26.789062 -23.609375 26.8125 -24.453125 C 26.84375 -25.796875 26.691406 -26.910156 26.359375 -27.796875 C 26.035156 -28.691406 25.566406 -29.410156 24.953125 -29.953125 C 24.347656 -30.492188 23.625 -30.878906 22.78125 -31.109375 C 21.945312 -31.335938 21.035156 -31.460938 20.046875 -31.484375 L 17.28125 -31.546875 Z M 17.015625 -18.625 "/></g></g></g><g fill="#000000" fill-opacity="1"><g transform="translate(134.466171, 354.008241)"><g><path d="M 5.34375 -37.96875 L 17.40625 -37.734375 L 16.796875 -7.421875 L 29.71875 -7.15625 L 29.5625 0.59375 L 4.578125 0.09375 Z M 5.34375 -37.96875 "/></g></g></g><g fill="#000000" fill-opacity="1"><g transform="translate(165.411605, 354.627645)"><g><path d="M 37.28125 0.75 L 22.90625 0.453125 L 21.296875 -7.6875 L 11.84375 -7.875 L 9.984375 0.203125 L 0.265625 0 L 10.734375 -37.859375 L 27.578125 -37.53125 Z M 17.171875 -31.8125 L 13.125 -14.15625 L 20.828125 -14 L 18 -31.796875 Z M 17.171875 -31.8125 "/></g></g></g><g fill="#000000" fill-opacity="1"><g transform="translate(202.949763, 355.379008)"><g><path d="M 2.859375 -18.90625 C 2.921875 -21.976562 3.523438 -24.726562 4.671875 -27.15625 C 5.828125 -29.582031 7.363281 -31.628906 9.28125 -33.296875 C 11.195312 -34.972656 13.410156 -36.242188 15.921875 -37.109375 C 18.441406 -37.972656 21.101562 -38.375 23.90625 -38.3125 C 25.863281 -38.28125 27.847656 -38.054688 29.859375 -37.640625 C 31.878906 -37.222656 33.882812 -36.503906 35.875 -35.484375 L 34.046875 -26.90625 C 32.484375 -27.789062 30.9375 -28.460938 29.40625 -28.921875 C 27.875 -29.390625 26.460938 -29.640625 25.171875 -29.671875 C 23.609375 -29.703125 22.203125 -29.472656 20.953125 -28.984375 C 19.703125 -28.492188 18.632812 -27.773438 17.75 -26.828125 C 16.863281 -25.878906 16.175781 -24.710938 15.6875 -23.328125 C 15.207031 -21.953125 14.945312 -20.394531 14.90625 -18.65625 C 14.875 -16.914062 15.070312 -15.351562 15.5 -13.96875 C 15.9375 -12.582031 16.578125 -11.390625 17.421875 -10.390625 C 18.265625 -9.398438 19.300781 -8.640625 20.53125 -8.109375 C 21.757812 -7.578125 23.15625 -7.296875 24.71875 -7.265625 C 26.007812 -7.234375 27.429688 -7.414062 28.984375 -7.8125 C 30.535156 -8.21875 32.109375 -8.835938 33.703125 -9.671875 L 35.1875 -1.015625 C 33.15625 -0.0859375 31.125 0.523438 29.09375 0.828125 C 27.0625 1.140625 25.066406 1.28125 23.109375 1.25 C 20.304688 1.1875 17.664062 0.679688 15.1875 -0.265625 C 12.707031 -1.222656 10.539062 -2.570312 8.6875 -4.3125 C 6.84375 -6.050781 5.394531 -8.148438 4.34375 -10.609375 C 3.289062 -13.066406 2.796875 -15.832031 2.859375 -18.90625 Z M 2.859375 -18.90625 "/></g></g></g><g fill="#000000" fill-opacity="1"><g transform="translate(241.34901, 356.147608)"><g><path d="M 5.375 -37.96875 L 32.078125 -37.4375 L 31.9375 -30.390625 L 17.296875 -30.6875 L 17.125 -22.640625 L 30.046875 -22.375 L 29.921875 -15.484375 L 17 -15.75 L 16.828125 -7.421875 L 31.46875 -7.125 L 31.3125 0.625 L 4.609375 0.09375 Z M 5.375 -37.96875 "/></g></g></g></svg>